<?xml version="1.0" encoding="utf-8"?>
<!-- Generator: Adobe Illustrator 21.0.0, SVG Export Plug-In . SVG Version: 6.00 Build 0)  -->
<svg version="1.1" id="Calque_1" xmlns="http://www.w3.org/2000/svg" xmlns:xlink="http://www.w3.org/1999/xlink" x="0px" y="0px"
	 viewBox="0 0 50 50" style="enable-background:new 0 0 50 50;" xml:space="preserve">
<style type="text/css">
	.st0{fill:#FFFFFF;}
	.st1{fill:#EBEBED;}
	.st2{fill:#FF9136;}
</style>
<g>
	
		<image style="overflow:visible;opacity:0.4;" width="50" height="58" xlink:href="8711D63CDBC72A28.png"  transform="matrix(1 0 0 1 4 -3)">
	</image>
	<g>
		<g>
			<g>
				<path class="st0" d="M46.1,33.9c-0.9-1.8-4.5,0-4.5,0s-0.3-4.8-2.8-4.1c-2.5,0.6,0.3,5.8,0.3,5.8c-0.7,1.9-2.8,2.7-4,3
					c0.4,2.3,1.2,4.9,2.9,5.8c0.1,0.1,0.2,0.1,0.4,0.2c2.7-1.8,2.7-7.7,2.7-7.7C43.9,37.4,47,35.7,46.1,33.9z"/>
				<path class="st0" d="M35.1,38.6c-0.2-1.2-0.3-2.4-0.3-3.2c0-0.4,0-0.7,0-1c0-0.1,0-0.2,0-0.2l0,0c0-0.9,0-1.7-0.1-1.9
					c-0.2-1.3-0.7-2.5-1.4-3.6c3.6-2.6,5.9-6.9,5.9-11.6c0-8-6.5-14.4-14.4-14.4S10.4,9.1,10.4,17.1c0,4.9,2.4,9.2,6.1,11.8
					c-0.1-1.2-0.1-2.4-0.1-3.2c-0.1-0.3-0.2-0.5-0.3-0.8c-0.4-0.5-0.8-1.2-1-2.2c-0.8-3.9,1.5-6.1,4.5-7.2c-0.7-0.3-1.1-1-1-1.8
					c0.1-1,0.9-1.8,2-1.7c1,0.1,1.8,0.9,1.7,2c0,0.3-0.1,0.7-0.3,0.9c1-0.2,2-0.3,3-0.3c0.9,0,1.8,0.1,2.8,0.2
					c-0.2-0.3-0.3-0.6-0.3-0.9c-0.1-1,0.7-1.9,1.7-2c1-0.1,1.9,0.7,2,1.7c0.1,0.7-0.3,1.4-0.9,1.7c3.1,1.1,5.5,3.3,4.7,7.2
					c-0.2,0.8-0.4,1.4-0.7,1.8c-0.2,0.8-0.6,1.6-1.1,2.3c-0.1,2.2-0.4,5.5-1.5,7.9l-1.3-5.5c-1.5,0.8-3.2,1.3-5.2,1.3
					c-2.2,0-4.2-0.6-5.7-1.6l-1.4,5.9c-0.7-1.6-1.1-3.5-1.3-5.3c-0.5,1-0.9,2.1-1,3.3c0,0.2-0.1,2.4-0.1,4c-0.2,2.6-0.9,6.5-3.1,7.7
					c-2.1,1.1-3.1,1.2-1.8,2.6c1.2,1.2,7.4,1,9.6-0.3c1.4,0.8,3.1,1.3,5,1.3c1.8,0,3.5-0.5,5-1.3c2.2,1.3,8.4,1.5,9.6,0.3
					c1.2-1.2,0.4-1.4-1.4-2.4c-0.1-0.1-0.2-0.1-0.4-0.2C36.2,43.5,35.4,40.9,35.1,38.6z"/>
				<path class="st1" d="M22.2,14c0.1-1-0.7-1.9-1.7-2c-1-0.1-1.9,0.7-2,1.7c-0.1,0.8,0.4,1.5,1,1.8c0.7-0.3,1.5-0.5,2.3-0.6
					C22,14.6,22.2,14.3,22.2,14z M21.4,14.2c-0.2-0.2-0.4-0.3-0.7-0.3c-0.6,0-1,0.3-1.3,0.7c-0.2-0.2-0.2-0.5-0.2-0.8
					c0-0.6,0.6-1.1,1.2-1.1c0.6,0,1.1,0.6,1.1,1.2C21.4,14,21.4,14.1,21.4,14.2z"/>
				<path class="st2" d="M20.4,12.7c-0.6,0-1.2,0.4-1.2,1.1c0,0.3,0.1,0.6,0.2,0.8c0.2-0.4,0.7-0.7,1.3-0.7c0.3,0,0.6,0.1,0.7,0.3
					c0-0.1,0-0.2,0-0.2C21.5,13.3,21,12.7,20.4,12.7z"/>
				<path class="st1" d="M31,13.7c-0.1-1-0.9-1.8-2-1.7c-1,0.1-1.8,0.9-1.7,2c0,0.3,0.1,0.6,0.3,0.9c0.8,0.1,1.6,0.3,2.4,0.6
					C30.6,15.1,31,14.5,31,13.7z M28.2,14.2c0-0.1,0-0.2,0-0.2c0-0.6,0.4-1.2,1.1-1.2c0.6,0,1.2,0.4,1.2,1.1c0,0.3-0.1,0.6-0.2,0.8
					c-0.2-0.4-0.7-0.7-1.3-0.7C28.6,13.9,28.3,14,28.2,14.2z"/>
				<path class="st2" d="M30.2,14.5c0.2-0.2,0.2-0.5,0.2-0.8c0-0.6-0.6-1.1-1.2-1.1c-0.6,0-1.1,0.6-1.1,1.2c0,0.1,0,0.2,0,0.2
					c0.2-0.2,0.4-0.3,0.7-0.3C29.5,13.8,30,14.1,30.2,14.5z"/>
				<path class="st1" d="M24.9,24.3c-1.2,0-3.1,0.9-4.9,1.3l-0.7,3.1c1.6,1,3.6,1.6,5.7,1.6c1.9,0,3.7-0.5,5.2-1.3l-0.8-3.6
					C27.6,25,26,24.3,24.9,24.3z"/>
				<path class="st0" d="M16,24.9c0.1,0.3,0.2,0.5,0.3,0.8c0-0.2,0-0.3,0-0.5C16.2,25.1,16.1,25,16,24.9z"/>
				<path class="st0" d="M32.9,25.5c0,0.4,0,0.8,0,1.2c0.5-0.7,0.9-1.4,1.1-2.3C33.7,25,33.3,25.3,32.9,25.5z"/>
				<path class="st2" d="M19.2,28.8l0.7-3.1c-1.3,0.3-2.6,0.3-3.6-0.4c0,0.1,0,0.3,0,0.5c0,0.8,0,2,0.1,3.2c0,0.2,0,0.3,0.1,0.5
					c0.2,1.8,0.6,3.7,1.3,5.3L19.2,28.8z"/>
				<path class="st2" d="M32.9,25.5c-1,0.5-2.3,0.3-3.6,0l0.8,3.6l1.3,5.5c1.1-2.4,1.4-5.7,1.5-7.9C32.9,26.3,32.9,25.9,32.9,25.5z"
					/>
				<path class="st2" d="M16.3,25.2c1,0.8,2.2,0.7,3.6,0.4c1.8-0.4,3.7-1.3,4.9-1.3c1.1,0,2.8,0.7,4.4,1.2c1.3,0.4,2.6,0.5,3.6,0
					c0.4-0.2,0.8-0.5,1.1-1c0.3-0.5,0.5-1.1,0.7-1.8c0.8-3.9-1.6-6.1-4.7-7.2c-0.8-0.3-1.6-0.5-2.4-0.6c-0.9-0.2-1.9-0.2-2.8-0.2
					c-1,0-2,0.1-3,0.3c-0.8,0.1-1.6,0.3-2.3,0.6c-3,1.1-5.3,3.3-4.5,7.2c0.2,1,0.5,1.7,1,2.2C16.1,25,16.2,25.1,16.3,25.2z
					 M24.9,15.8c1.8,0,2.5,0.6,2.5,1.3c0,0.7-0.7,2.1-2.5,2.1s-2.5-1.4-2.5-2.1C22.4,16.4,23.1,15.8,24.9,15.8z"/>
				<path class="st0" d="M24.9,19.2c1.8,0,2.5-1.4,2.5-2.1c0-0.7-0.7-1.3-2.5-1.3s-2.5,0.6-2.5,1.3C22.4,17.8,23.1,19.2,24.9,19.2z"
					/>
			</g>
		</g>
	</g>
</g>
</svg>
