<?xml version="1.0" encoding="utf-8"?>
<!-- Generator: Adobe Illustrator 21.0.0, SVG Export Plug-In . SVG Version: 6.00 Build 0)  -->
<svg version="1.1" id="Calque_1" xmlns="http://www.w3.org/2000/svg" xmlns:xlink="http://www.w3.org/1999/xlink" x="0px" y="0px"
	 viewBox="0 0 50 50" style="enable-background:new 0 0 50 50;" xml:space="preserve">
<style type="text/css">
	.st0{fill:#FFFFFF;}
	.st1{fill:#FF9136;}
	.st2{fill:#EBEBEB;}
</style>
<g>
	
		<image style="overflow:visible;opacity:0.4;" width="45" height="56" xlink:href="CCB1F6EAFCA28C55.png"  transform="matrix(1 0 0 1 5 -2)">
	</image>
	<g>
		<g>
			<g>
				<path class="st0" d="M38.8,38.7c0-0.1,0-0.1,0-0.2c-0.6,0.4-1.3,0.5-1.8,0.3c-0.8-0.3-1.5-1-2.1-2.2c-0.3,0.3-0.5,0.6-0.8,0.9
					c0.7,1.2,1.5,2,2.5,2.3c0.3,0.1,0.6,0.1,0.9,0.1c0.6,0,1.2-0.2,1.8-0.5C39.1,39.4,39,39.1,38.8,38.7z"/>
				<path class="st0" d="M38.8,38.5c0,0.1,0,0.1,0,0.2c0.1,0.4,0.3,0.7,0.5,0.8c1.1,0.8,3-1.4,3.6-2.8C43,36.7,38.2,36.2,38.8,38.5z
					"/>
				<path class="st1" d="M35.3,36.2c-2.5,1.9-5.6,3.1-8.8,3.1c-3.3,0-6.3-1.1-8.8-3.1c0.3,0.5,0.6,1,1.2,1.4v7.1
					c0-0.6,0.5-1.1,1.1-1.1H20c0.3,0,0.6,0.1,0.8,0.3c0.2-0.2,0.5-0.3,0.8-0.3h0.1c0.2,0,0.5,0.1,0.6,0.2c0.2-0.1,0.4-0.2,0.6-0.2
					h0.1c0.6,0,1.1,0.5,1.1,1.1v-4.1c0.9,0.2,1.5,0.2,2.3,0.2c0.8,0,1.4-0.1,2.3-0.2v3.4c0.3-0.2,0.5-0.3,0.8-0.3h0.1
					c0.3,0,0.6,0.1,0.8,0.3c0.2-0.2,0.5-0.3,0.8-0.3h0.1c0.2,0,0.5,0.1,0.6,0.2c0.2-0.1,0.4-0.2,0.6-0.2h0.1c0.6,0,1.1,0.5,1.1,1.1
					v-6.8c0-0.1,0.2-0.2,0.2-0.2c0.3-0.3,0.5-0.6,0.8-0.9C35,36.5,35.2,36.3,35.3,36.2z"/>
				<path class="st0" d="M18.8,46.1L18.8,46.1c0-0.1,0-0.1,0-0.2V46.1z"/>
				<path class="st0" d="M24.2,46.1v-0.2C24.2,46,24.2,46.1,24.2,46.1L24.2,46.1z"/>
				<path class="st0" d="M33.9,46.1v-0.2C33.9,46,33.9,46.1,33.9,46.1L33.9,46.1z"/>
				<path class="st0" d="M19.8,10.1c0.6-0.4,1.3-0.8,2-1.1c0.3,0.8,0.9,1.7,2.1,2.2c2.6,1.1,3,3.7,1.8,4.4c0,0,4.8-2.1,5.5-6.5
					c0.7,0.3,1.3,0.7,1.9,1.1c1-1.3,2.3-2.4,3.6-2.1c-2.4-2.3-5.4-3.9-8.7-4.3c-0.5-0.1-1-0.2-1.6-0.2c-0.9,0-1.7,0.1-2.3,0.3
					c-3,0.5-5.7,2-7.9,4.2C17.5,7.8,18.8,8.9,19.8,10.1z"/>
				<path class="st0" d="M26.4,39.2c3.3,0,6.3-1.1,8.8-3.1c4.1-3.2,6.9-8.6,6.9-14.7c0-3.9-1.1-7.5-3-10.4c0.1,1.5-1.4,2.7-2.4,3.4
					c0.7,1.5,1.2,3.2,1.2,5c0,0.3,0,0.6,0,0.9c0,0,0,0,0,0c-0.1,0.9-0.3,1.8-0.5,2.7c0,0,0,0,0,0.1c-1.5,4.5-5.8,7.8-10.9,7.8
					s-9.4-3.3-10.9-7.8c0,0,0,0,0-0.1c-0.1-0.2-0.1-0.4-0.2-0.7c0,0,0,0,0,0c0,0,0,0,0,0c-0.2-0.6-0.3-1.3-0.3-2c0,0,0,0,0,0
					c0-0.3,0-0.6,0-0.9c0-1.8,0.4-3.5,1.2-5c-1-0.7-2.4-1.8-2.4-3.4c-1.9,2.9-2.9,6.5-2.9,10.4c0,6.1,2.7,11.5,6.9,14.7
					C20.1,38.1,23.2,39.2,26.4,39.2z"/>
				<path class="st0" d="M36,13.1c1.5-0.9,1.9-2,0.8-2.8c-0.7-0.5-1.6,0.1-2.4,0.9C35,11.8,35.6,12.4,36,13.1z"/>
				<path class="st1" d="M16.1,14.5c-0.7,1.5-1.2,3.2-1.2,5c0,0.3,0,0.6,0,0.9c0-0.2,0-0.5,0-0.7l4.1,0.7L15,21.2
					c0-0.2-0.1-0.5-0.1-0.7c0.1,0.7,0.2,1.3,0.3,2c1-0.1,3.3-0.4,3.3-0.4l-2.9,1.8c-0.1-0.2-0.2-0.4-0.2-0.6
					c1.5,4.5,5.8,7.8,10.9,7.8s9.4-3.3,10.9-7.8c-0.1,0.2-0.2,0.4-0.2,0.6L34.2,22c0,0,2.3,0.3,3.3,0.4c-0.1,0.2-0.1,0.4-0.2,0.7
					c0.3-0.8,0.5-1.7,0.5-2.7c0,0.2,0,0.5-0.1,0.7l-3.9-0.7l4.1-0.7c0,0.2,0,0.5,0,0.7c0-0.3,0-0.6,0-0.9c0-1.8-0.4-3.5-1.2-5
					c1-0.7,2.4-1.9,2.4-3.4c0-0.5-0.2-1.1-0.7-1.8c-0.6-0.8-1.2-1.1-1.7-1.3c-1.3-0.3-2.6,0.8-3.6,2.1c-0.6-0.4-1.2-0.8-1.9-1.1
					c-0.8,4.4-5.5,6.5-5.5,6.5c1.1-0.6,0.7-3.2-1.8-4.4c-1.2-0.5-1.8-1.4-2.1-2.2c-0.7,0.3-1.4,0.7-2,1.1c-1-1.3-2.2-2.4-3.6-2.1
					c-0.6,0.1-1.2,0.5-1.8,1.3c-0.5,0.6-0.7,1.2-0.7,1.8C13.7,12.6,15.1,13.8,16.1,14.5z M15,18.5c0-0.4,0.1-0.8,0.2-1.2
					c0.9,0.4,4.4,2.1,4.4,2.1L15,18.5z M32.5,24.8c0,1.4-1.2,2.5-2.6,2.5h-0.5c-0.5,0.8-1.3,1.4-2.3,1.4h-1c-1,0-1.9-0.7-2.4-1.7
					h-0.4c-1.4,0-2.5-1.3-2.5-2.6v-0.2c0-1.3,1.1-2.2,2.5-2.2h0.2c0.1-0.9,0.9-1.6,2.8-1.6c1.9,0,2.7,0.8,2.8,1.6h0.7
					c1.4,0,2.6,1.1,2.6,2.5V24.8z M37.9,18.5l-4.6,0.9c0,0,3.5-1.7,4.4-2.1C37.8,17.6,37.9,18,37.9,18.5z M36.8,10.4
					c1.1,0.7,0.7,1.8-0.8,2.8c-0.5-0.7-1-1.3-1.6-1.9C35.3,10.4,36.1,9.9,36.8,10.4z M29.9,17.1c0.8,0,1.5,0.6,1.5,1.4
					c0,0.8-0.6,1.5-1.4,1.5c-0.8,0-1.5-0.6-1.5-1.4C28.4,17.8,29.1,17.1,29.9,17.1z M24.2,18.6c0,0.8-0.7,1.4-1.5,1.4
					c-0.8,0-1.4-0.7-1.4-1.5c0-0.8,0.7-1.4,1.5-1.4C23.6,17.1,24.2,17.8,24.2,18.6z M18.5,11.2c-0.6,0.6-1.1,1.2-1.6,1.9
					c-1.5-0.9-1.9-2-0.8-2.8C16.7,9.9,17.6,10.4,18.5,11.2z"/>
				<path class="st0" d="M16.9,13.1c0.5-0.7,1-1.3,1.6-1.9c-0.8-0.8-1.7-1.3-2.4-0.9C14.9,11.1,15.4,12.2,16.9,13.1z"/>
				<path class="st0" d="M15.5,23.2c-0.1-0.2-0.1-0.4-0.2-0.7C15.4,22.7,15.4,22.9,15.5,23.2z"/>
				<path class="st0" d="M18.7,22c0,0-2.3,0.3-3.3,0.4c0,0,0,0,0,0c0,0,0,0,0,0c0.1,0.2,0.1,0.4,0.2,0.7c0,0,0,0,0,0.1
					c0.1,0.2,0.2,0.4,0.2,0.6L18.7,22z"/>
				<path class="st0" d="M19,20.5l-4.1-0.7c0,0.2,0,0.5,0,0.7c0,0,0,0,0,0c0,0.2,0,0.5,0.1,0.7L19,20.5z"/>
				<path class="st0" d="M15.1,17.2C15.1,17.6,15,18,15,18.5l4.6,0.9C19.6,19.3,16.1,17.7,15.1,17.2z"/>
				<path class="st0" d="M34.2,22l2.9,1.8c0.1-0.2,0.2-0.4,0.2-0.6c0,0,0,0,0-0.1c0.1-0.2,0.1-0.4,0.2-0.7
					C36.5,22.4,34.2,22,34.2,22z"/>
				<path class="st0" d="M33.9,20.5l3.9,0.7c0-0.2,0.1-0.5,0.1-0.7c0,0,0,0,0,0c0-0.2,0-0.5,0-0.7L33.9,20.5z"/>
				<path class="st0" d="M37.9,18.5c0-0.4-0.1-0.8-0.2-1.2c-0.9,0.4-4.4,2.1-4.4,2.1L37.9,18.5z"/>
				<path class="st0" d="M21.2,18.5c0,0.8,0.6,1.5,1.4,1.5c0.8,0,1.5-0.6,1.5-1.4c0-0.8-0.6-1.5-1.4-1.5C22,17,21.3,17.7,21.2,18.5z
					 M22.8,17.6c0.5,0,0.9,0.5,0.9,1c0,0.1,0,0.1,0,0.2c-0.1-0.1-0.3-0.2-0.6-0.3c-0.5,0-0.8,0.2-1,0.5c-0.1-0.2-0.2-0.4-0.2-0.6
					C21.9,18,22.3,17.6,22.8,17.6z"/>
				<path class="st1" d="M23.1,18.5c0.3,0,0.5,0.1,0.6,0.3c0-0.1,0-0.1,0-0.2c0-0.5-0.3-0.9-0.9-1c-0.5,0-0.9,0.3-1,0.9
					c0,0.2,0.1,0.4,0.2,0.6C22.2,18.8,22.6,18.5,23.1,18.5z"/>
				<path class="st0" d="M30,20c0.8,0,1.4-0.7,1.4-1.5c0-0.8-0.7-1.4-1.5-1.4c-0.8,0-1.4,0.7-1.4,1.5C28.5,19.4,29.2,20,30,20z
					 M30.1,17.6c0.5,0,0.9,0.3,1,0.9c0,0.2-0.1,0.4-0.2,0.6c-0.2-0.3-0.6-0.6-1-0.5c-0.3,0-0.5,0.1-0.6,0.3c0-0.1,0-0.1,0-0.2
					C29.2,18.1,29.6,17.7,30.1,17.6z"/>
				<path class="st1" d="M29.8,18.5c0.5,0,0.8,0.2,1,0.5c0.1-0.2,0.2-0.4,0.2-0.6c0-0.5-0.5-0.9-1-0.9c-0.5,0-0.9,0.5-0.9,1
					c0,0.1,0,0.1,0,0.2C29.4,18.7,29.6,18.6,29.8,18.5z"/>
				<path class="st2" d="M29.9,21.9h-0.7c0,0.1,0,0.1,0,0.2c0,0.9-1.8,2.9-2.8,2.9c-1,0-2.8-1.9-2.8-2.9c0-0.1,0-0.1,0-0.2h-0.2
					c-1.4,0-2.5,0.9-2.5,2.2v0.2c0,1.3,1.1,2.6,2.5,2.6h0.4c0.5,1,1.4,1.7,2.4,1.7h1c0.9,0,1.8-0.6,2.3-1.4h0.5
					c1.4,0,2.6-1.1,2.6-2.5v-0.3C32.5,23.1,31.3,21.9,29.9,21.9z"/>
				<path class="st0" d="M26.3,25c1,0,2.8-1.9,2.8-2.9c0-0.1,0-0.1,0-0.2c-0.1-0.9-0.9-1.6-2.8-1.6c-1.9,0-2.7,0.8-2.8,1.6
					c0,0.1,0,0.1,0,0.2C23.5,23.1,25.3,25,26.3,25z"/>
				<path class="st0" d="M23.1,43.6H23c-0.2,0-0.5,0.1-0.6,0.2c-0.2-0.1-0.4-0.2-0.6-0.2h-0.1c-0.3,0-0.6,0.1-0.8,0.3
					c-0.2-0.2-0.5-0.3-0.8-0.3h-0.1c-0.6,0-1.1,0.5-1.1,1.1v1.3c0,0.1,0,0.1,0,0.2c0.1,0.5,0.5,0.9,1,0.9H20c0.3,0,0.6-0.1,0.8-0.3
					c0.2,0.2,0.5,0.3,0.8,0.3h0.1c0.2,0,0.5-0.1,0.6-0.2c0.2,0.1,0.4,0.2,0.6,0.2h0.1c0.5,0,1-0.4,1.1-0.9c0-0.1,0-0.1,0-0.2v-1.3
					C24.2,44.1,23.7,43.6,23.1,43.6z"/>
				<path class="st0" d="M32.8,43.6h-0.1c-0.2,0-0.5,0.1-0.6,0.2c-0.2-0.1-0.4-0.2-0.6-0.2h-0.1c-0.3,0-0.6,0.1-0.8,0.3
					c-0.2-0.2-0.5-0.3-0.8-0.3h-0.1c-0.3,0-0.6,0.1-0.8,0.3c-0.2,0.2-0.3,0.4-0.3,0.7v1.3c0,0.6,0.5,1.1,1.1,1.1h0.1
					c0.3,0,0.6-0.1,0.8-0.3c0.2,0.2,0.5,0.3,0.8,0.3h0.1c0.2,0,0.5-0.1,0.6-0.2c0.2,0.1,0.4,0.2,0.6,0.2h0.1c0.5,0,1-0.4,1.1-0.9
					c0-0.1,0-0.1,0-0.2v-1.3C33.9,44.1,33.4,43.6,32.8,43.6z"/>
			</g>
		</g>
	</g>
</g>
</svg>
