<?xml version="1.0" encoding="utf-8"?>
<!-- Generator: Adobe Illustrator 21.0.0, SVG Export Plug-In . SVG Version: 6.00 Build 0)  -->
<svg version="1.1" id="Calque_1" xmlns="http://www.w3.org/2000/svg" xmlns:xlink="http://www.w3.org/1999/xlink" x="0px" y="0px"
	 viewBox="0 0 50 50" style="enable-background:new 0 0 50 50;" xml:space="preserve">
<style type="text/css">
	.st0{fill:#FFFFFF;}
	.st1{opacity:0.6;fill:#FFFFFF;}
	.st2{fill:#EBEBEB;}
	.st3{fill:#FF9136;}
</style>
<g>
	
		<image style="overflow:visible;opacity:0.4;" width="42" height="55" xlink:href="865B5454AAD13B15.png"  transform="matrix(1 0 0 1 6 -2)">
	</image>
	<g>
		<g>
			<g>
				<path class="st0" d="M16.8,8.9c-0.6-1.1-1.5-2.8-1.9-3.1c-0.5-0.5-2.1,3.8-0.3,5.2C15.2,10.2,15.9,9.5,16.8,8.9z"/>
				<path class="st1" d="M16.8,8.9c-0.6-1.1-1.5-2.8-1.9-3.1c-0.5-0.5-2.1,3.8-0.3,5.2C15.2,10.2,15.9,9.5,16.8,8.9z"/>
				<path class="st0" d="M34.7,11c1.8-1.4,0.2-5.7-0.3-5.2c-0.4,0.3-1.3,2-1.9,3.1C33.3,9.5,34.1,10.2,34.7,11z"/>
				<path class="st1" d="M34.7,11c1.8-1.4,0.2-5.7-0.3-5.2c-0.4,0.3-1.3,2-1.9,3.1C33.3,9.5,34.1,10.2,34.7,11z"/>
				<path class="st0" d="M24.6,32.3c4.1,0,7.7-1.9,10.1-4.8c1.9-2.3,3-5.1,3-8.3c0-2.3-0.6-4.5-1.7-6.4c2.8-2.4,1-10.8-1.4-9.8
					c-2,0.9-3.7,3.6-4.2,4.5c-1.8-0.9-3.7-1.4-5.8-1.4c-2.1,0-4.1,0.5-5.8,1.4c-0.5-0.9-2.2-3.7-4.2-4.5c-2.4-1-4.2,7.4-1.4,9.8
					c-1.1,1.9-1.7,4.1-1.7,6.4c0,3.1,1.1,6,3,8.3C17,30.4,20.6,32.3,24.6,32.3z M28.8,30.2c-1.9,0-3.5-1.1-4-2.6
					c-0.5,1.5-2.1,2.6-4,2.6c-2.3,0-4.1-1.6-4.1-3.5c0-1.9,1.8-3.5,4.1-3.5c0.2,0,0.4,0,0.5,0c0,0,0-0.1,0-0.1
					c0-1.1,0.9-2.2,3.4-2.2c2.5,0,3.4,1.1,3.4,2.2c0,0,0,0.1,0,0.1c0.2,0,0.4,0,0.5,0c2.3,0,4.1,1.6,4.1,3.5
					C32.9,28.6,31.1,30.2,28.8,30.2z M34.4,5.8c0.5-0.5,2.1,3.8,0.3,5.2c-0.7-0.8-1.4-1.5-2.2-2.1C33.1,7.8,34.1,6.1,34.4,5.8z
					 M29.2,13.7c1.5-0.1,2.8,1.1,2.8,2.6c0.1,1.5-1.1,2.8-2.6,2.8c-1.5,0.1-2.8-1.1-2.8-2.6C26.5,15,27.7,13.7,29.2,13.7z M14.9,5.8
					c0.4,0.3,1.3,2,1.9,3.1c-0.8,0.6-1.6,1.3-2.2,2.1C12.8,9.7,14.3,5.3,14.9,5.8z M15.5,14.6c1.6-3.7,4.4-3.6,6.3-3.1
					c2.3,0.7,3.1,3.7,2.5,6.3c-0.6,2.6-7.4,4.9-8.8,4.3C14.1,21.4,13.9,18.3,15.5,14.6z"/>
				<path class="st0" d="M15.5,22.1c1.4,0.7,8.3-1.6,8.8-4.3c0.6-2.6-0.2-5.6-2.5-6.3c-1.9-0.6-4.7-0.6-6.3,3.1
					C13.9,18.3,14.1,21.4,15.5,22.1z M20,13.7c1.5,0.1,2.7,1.3,2.6,2.8c-0.1,1.5-1.3,2.7-2.8,2.6c-1.5-0.1-2.7-1.3-2.6-2.8
					C17.3,14.8,18.5,13.6,20,13.7z"/>
				<path class="st2" d="M19.8,19.2c1.5,0.1,2.8-1.1,2.8-2.6c0.1-1.5-1.1-2.8-2.6-2.8c-1.5-0.1-2.8,1.1-2.8,2.6
					C17.1,17.8,18.3,19.1,19.8,19.2z M20.2,15.3c0.8,0.2,1,0.9,0.8,1.5c-0.1-0.2-0.3-0.3-0.6-0.4c-0.7-0.2-1.3,0.3-1.5,0.9
					C18.2,16.6,18.9,15,20.2,15.3z"/>
				<path class="st3" d="M20.4,16.5c0.3,0.1,0.5,0.2,0.6,0.4c0.2-0.6,0-1.3-0.8-1.5c-1.3-0.3-2,1.3-1.3,2
					C19.1,16.8,19.6,16.3,20.4,16.5z"/>
				<path class="st2" d="M29.4,19.2c1.5-0.1,2.7-1.3,2.6-2.8c-0.1-1.5-1.3-2.7-2.8-2.6c-1.5,0.1-2.7,1.3-2.6,2.8
					C26.6,18,27.9,19.2,29.4,19.2z M29,15.3c1.3-0.3,2,1.3,1.3,2c-0.2-0.6-0.7-1.1-1.5-0.9c-0.3,0.1-0.5,0.2-0.6,0.4
					C28,16.2,28.2,15.5,29,15.3z"/>
				<path class="st3" d="M28.8,16.5c0.7-0.2,1.3,0.3,1.5,0.9c0.7-0.7,0-2.3-1.3-2c-0.8,0.2-1,0.9-0.8,1.5
					C28.3,16.7,28.5,16.5,28.8,16.5z"/>
				<path class="st3" d="M28.8,23.2c-0.2,0-0.4,0-0.5,0c-0.1,1.2-2.2,3.4-3.4,3.4c-1.2,0-3.3-2.2-3.4-3.4c-0.2,0-0.4,0-0.5,0
					c-2.3,0-4.1,1.6-4.1,3.5c0,1.9,1.8,3.5,4.1,3.5c1.9,0,3.5-1.1,4-2.6c0.5,1.5,2.1,2.6,4,2.6c2.3,0,4.1-1.6,4.1-3.5
					C32.9,24.8,31.1,23.2,28.8,23.2z"/>
				<path class="st3" d="M24.9,26.6c1.2,0,3.3-2.2,3.4-3.4c0,0,0-0.1,0-0.1c0-1.1-0.9-2.2-3.4-2.2c-2.5,0-3.4,1.1-3.4,2.2
					c0,0,0,0.1,0,0.1C21.6,24.4,23.7,26.6,24.9,26.6z"/>
				<path class="st0" d="M39.6,23.9c-0.4,3.4-3.5,5-4.7,5.5c0-0.6-0.1-1.3-0.3-1.9c-2.4,2.9-6,4.8-10.1,4.8c-4.1,0-7.7-1.9-10.1-4.8
					c-0.2,0.8-0.3,1.6-0.3,2.4c0,2.4,0.7,4.5,2.1,6.3v8.1c0,0.9,0.7,1.7,1.7,1.7h1.7c0.9,0,1.7-0.8,1.7-1.7v-4.6
					c0.8,0.3,2,0.5,3.1,0.5c1.2,0,2.2-0.2,3.3-0.5v4.6c0,0.9,0.7,1.7,1.7,1.7h1.7c0.9,0,1.7-0.8,1.7-1.7v-8.4c0.8-1.4,1.6-3,1.9-4.8
					c1.6-0.6,3.7-1.7,4.5-3.2C40.8,25.7,39.6,23.9,39.6,23.9z"/>
			</g>
		</g>
	</g>
</g>
</svg>
