<?xml version="1.0" encoding="utf-8"?>
<!-- Generator: Adobe Illustrator 21.0.0, SVG Export Plug-In . SVG Version: 6.00 Build 0)  -->
<svg version="1.1" id="Calque_1" xmlns="http://www.w3.org/2000/svg" xmlns:xlink="http://www.w3.org/1999/xlink" x="0px" y="0px"
	 viewBox="0 0 50 50" style="enable-background:new 0 0 50 50;" xml:space="preserve">
<style type="text/css">
	.st0{fill:#FFFFFF;}
	.st1{fill:#FF9136;}
	.st2{fill:#EBEBEB;}
	.st3{opacity:0.3;fill:#FFFFFF;}
</style>
<g>
	
		<image style="overflow:visible;opacity:0.4;" width="39" height="59" xlink:href="9772DAFB87BDF2D.png"  transform="matrix(1 0 0 1 7 -4)">
	</image>
	<g>
		<g>
			<g>
				<path class="st0" d="M24.3,42.9v3.2c0,0-3.9-0.4-3.9,0.9c-0.1,1.3,5.1,0.2,5.1,0.2s5.2,1.1,5.1-0.2c-0.1-1.3-3.9-0.9-3.9-0.9
					v-3.2c-0.3,0-0.8,0.1-1.2,0.1C25.1,43,24.6,43,24.3,42.9z"/>
				<path class="st0" d="M17.1,30.5c-0.8,0.7-1.8,1.8-2.6,3.4c-1.7,3.4-2,7.1,1.2,5.4c0,0,0.3,2.7,2.5,1.4c0.2-0.1,0.4-0.4,0.6-0.7
					c-1.4-1.6-2.3-3.7-2.3-6C16.4,32.7,16.7,31.5,17.1,30.5z"/>
				<path class="st0" d="M33.9,30.5c0.4,1.1,0.7,2.2,0.7,3.5c0,2.3-0.9,4.4-2.3,6c0.2,0.3,0.3,0.5,0.6,0.7c2.2,1.4,2.5-1.4,2.5-1.4
					c3.2,1.7,2.9-2,1.2-5.4C35.7,32.3,34.7,31.2,33.9,30.5z"/>
				<path class="st0" d="M33.9,30.5c-0.2-0.4-0.3-0.7-0.5-1.1c-2.2,1.6-4.9,2.5-7.8,2.5c-2.9,0-5.6-0.9-7.8-2.5
					c-0.2,0.4-0.4,0.7-0.5,1.1c-0.4,1.1-0.7,2.2-0.7,3.5c0,2.3,0.9,4.4,2.3,6c1.4,1.6,3.4,2.7,5.6,3c0.4,0.1,0.8,0.1,1.2,0.1
					c0.4,0,0.8,0,1.2-0.1c2.2-0.3,4.2-1.4,5.6-3c1.4-1.6,2.3-3.7,2.3-6C34.6,32.7,34.3,31.5,33.9,30.5z"/>
				<path class="st0" d="M25.5,31.9c2.9,0,5.6-0.9,7.8-2.5c3.4-2.4,5.7-6.5,5.7-11c0-7.2-5.6-13-12.6-13.5c0.3-0.7,0.7-1.2,1.1-1.9
					c0.1-0.2,0-0.6-0.3-0.5C26.7,2.7,26.3,3,26,3.3c0.3-0.7,0.7-1.3,1-1.9c0-0.1,0-0.2-0.1-0.2c-1.6,0.5-2.3,2.1-2.6,3.8
					C17.4,5.5,12,11.3,12,18.4c0,4.5,2.2,8.5,5.7,11C19.9,31,22.6,31.9,25.5,31.9z M31.5,16c1.6,0,2.9,1.3,2.9,2.9
					c0,1.6-1.3,2.9-2.9,2.9c-1.6,0-2.9-1.3-2.9-2.9C28.6,17.3,29.9,16,31.5,16z M25.5,23.4c1.7,0,2.3,2,2.3,2L25.5,27l-2.3-1.7
					C23.2,25.4,23.8,23.4,25.5,23.4z M16.6,18.9c0-1.6,1.3-2.9,2.9-2.9c1.6,0,2.9,1.3,2.9,2.9c0,1.6-1.3,2.9-2.9,2.9
					C17.9,21.9,16.6,20.5,16.6,18.9z"/>
				<path class="st1" d="M23.2,25.4l2.3,1.7l2.3-1.7c0,0-0.6-2-2.3-2S23.2,25.4,23.2,25.4z"/>
				<path class="st2" d="M22.4,18.9c0-1.6-1.3-2.9-2.9-2.9c-1.6,0-2.9,1.3-2.9,2.9c0,1.6,1.3,2.9,2.9,2.9
					C21.1,21.9,22.4,20.5,22.4,18.9z M18.4,19.6c-0.1-0.2-0.2-0.4-0.2-0.6c0-0.7,0.6-1.3,1.3-1.3c0.7,0,1.3,0.5,1.3,1.2
					c-0.2-0.2-0.5-0.3-0.9-0.3C19.1,18.5,18.6,19,18.4,19.6z"/>
				<path class="st1" d="M20.8,18.9c0-0.7-0.6-1.2-1.3-1.2c-0.7,0-1.3,0.6-1.3,1.3c0,0.2,0.1,0.4,0.2,0.6c0.2-0.6,0.8-1,1.5-1
					C20.3,18.5,20.6,18.7,20.8,18.9z"/>
				<path class="st2" d="M31.5,21.9c1.6,0,2.9-1.3,2.9-2.9c0-1.6-1.3-2.9-2.9-2.9c-1.6,0-2.9,1.3-2.9,2.9
					C28.6,20.5,29.9,21.9,31.5,21.9z M31.5,17.6c0.7,0,1.3,0.6,1.3,1.3c0,0.2-0.1,0.4-0.2,0.6c-0.2-0.6-0.8-1-1.5-1
					c-0.4,0-0.7,0.1-0.9,0.3C30.2,18.2,30.8,17.6,31.5,17.6z"/>
				<path class="st1" d="M32.6,19.6c0.1-0.2,0.2-0.4,0.2-0.6c0-0.7-0.6-1.3-1.3-1.3c-0.7,0-1.3,0.5-1.3,1.2c0.2-0.2,0.5-0.3,0.9-0.3
					C31.9,18.5,32.4,19,32.6,19.6z"/>
			</g>
			<path class="st3" d="M33.9,30.5c-0.2-0.4-0.3-0.7-0.5-1.1c3.4-2.4,5.7-6.5,5.7-11c0-7.2-5.6-13-12.6-13.5
				c0.3-0.7,0.7-1.2,1.1-1.9c0.1-0.2,0-0.6-0.3-0.5C26.7,2.7,26.3,3,26,3.3c0.3-0.7,0.7-1.3,1-1.9c0-0.1,0-0.2-0.1-0.2
				c-0.5,0.1-0.9,0.4-1.2,0.7v45.3c0.7,0.1,5.1,1,5-0.2c-0.1-1.3-3.9-0.9-3.9-0.9v-3.2c2.2-0.3,4.1-1.4,5.5-3
				c0.2,0.3,0.3,0.5,0.6,0.7c2.2,1.4,2.5-1.4,2.5-1.4c3.2,1.7,2.9-2,1.2-5.4C35.7,32.3,34.7,31.2,33.9,30.5z"/>
		</g>
	</g>
</g>
</svg>
