<?xml version="1.0" encoding="utf-8"?>
<!-- Generator: Adobe Illustrator 21.0.0, SVG Export Plug-In . SVG Version: 6.00 Build 0)  -->
<svg version="1.1" id="Calque_1" xmlns="http://www.w3.org/2000/svg" xmlns:xlink="http://www.w3.org/1999/xlink" x="0px" y="0px"
	 viewBox="0 0 50 50" style="enable-background:new 0 0 50 50;" xml:space="preserve">
<style type="text/css">
	.st0{opacity:0.9;fill:#90DFE0;}
	.st1{fill:#E75342;}
	.st2{opacity:0.4;fill:#CEFEE0;}
</style>
<g id="bottle">
	<path class="st0" d="M29,20.2v-13h1c0.6,0,1.1-0.9,1.1-2V5.2c0-1.1-0.5-2.2-1.1-2.2H19.7c-0.6,0-0.9,1.1-0.9,2.2v0.1
		c0,1.1,0.3,2,0.9,2h0.8v13l-13,23.4c0,1.6,1.2,2.9,2.7,2.9h29.5c1.6,0,2.7-1.3,2.7-2.9L29,20.2z"/>
	<polygon class="st1" points="31,28.6 19,28.6 10.7,43.5 39.3,43.5 	"/>
	<path class="st2" d="M24.8,3h-5c-0.6,0-0.9,1.1-0.9,2.2v0.1c0,1.1,0.3,2,0.9,2h0.8v13l-13,23.4c0,1.6,1.2,2.9,2.7,2.9h14.5V3z"/>
</g>
</svg>
