<?xml version="1.0" encoding="utf-8"?>
<!-- Generator: Adobe Illustrator 21.0.0, SVG Export Plug-In . SVG Version: 6.00 Build 0)  -->
<svg version="1.1" id="Calque_1" xmlns="http://www.w3.org/2000/svg" xmlns:xlink="http://www.w3.org/1999/xlink" x="0px" y="0px"
	 viewBox="0 0 50 50" style="enable-background:new 0 0 50 50;" xml:space="preserve">
<style type="text/css">
	.st0{clip-path:url(#SVGID_2_);fill:#51360E;}
	.st1{fill:#F7D0BF;}
	.st2{fill:#D5AC98;}
	.st3{clip-path:url(#SVGID_4_);fill:#51360E;}
	.st4{fill:#51360E;}
	.st5{clip-path:url(#SVGID_6_);fill:#51360E;}
	.st6{clip-path:url(#SVGID_8_);fill:#D5AC98;}
	.st7{fill:#CE9A86;}
	.st8{clip-path:url(#SVGID_10_);fill:#51360E;}
	.st9{clip-path:url(#SVGID_12_);fill:#51360E;}
	.st10{clip-path:url(#SVGID_14_);fill:#D5AC98;}
	.st11{clip-path:url(#SVGID_16_);fill:#D5AC98;}
	.st12{fill:#725219;}
	.st13{clip-path:url(#SVGID_18_);fill:#D5AC98;}
	.st14{fill:#110F0E;}
	.st15{fill:#E4BAA4;}
	.st16{fill:#723B20;}
	.st17{fill:#6B4437;}
</style>
<g>
	<g>
		<g>
			<g>
				<defs>
					<path id="SVGID_1_" d="M23.3,21.4c0,0,4.2,0.4,6.4-1.7s3.2-8.7-0.5-11.1c0,0,0.1,1.1-0.3,1.1s-1.4-0.6-1.4-1.4
						c0,0-1,0.9-1.2-0.4s2.4-4.1,4-3.6c1.6,0.5,0,0.7,0,0.7s4.4,0.5,5.9,5.6c1.4,5-1.6,16.6-12,13.6S23.3,21.4,23.3,21.4z"/>
				</defs>
				<use xlink:href="#SVGID_1_"  style="overflow:visible;fill:#725219;"/>
				<clipPath id="SVGID_2_">
					<use xlink:href="#SVGID_1_"  style="overflow:visible;"/>
				</clipPath>
				<path class="st0" d="M22,21.8c0,0,4,1.5,7.5,0s4.7-3.3,4.7-3.5c0,0,1.7,0.9,1.9-5.3c0.2-6.2,3,6.7-3.2,10.6S21.2,24.3,22,21.8z"
					/>
			</g>
			<g>
				<path class="st1" d="M24.1,7.2c-0.2-0.6-1.4-3.6-0.6-4.4c0.8-0.8,1,1.7,1.8,2.2s0.1-2.6,1.6-2.9C28.5,1.8,27,4,27.7,4.9
					s1.3-2.5,2.6-2.1c1.3,0.4-0.4,1.8-0.5,2.7s-0.4,2.5-2.1,2.7c-1.7,0.2-2.8,0.7-3.2,1c-0.4,0.3-1.8,0.2-2.3,0
					C21.8,8.9,21.9,8,23.1,8C24.2,8,24.1,7.2,24.1,7.2z"/>
				<path class="st2" d="M27.7,6.2c0,0-1.5,0.1-1.6,1.4C26.1,7.6,25.6,6.1,27.7,6.2z"/>
			</g>
		</g>
		<g>
			<path class="st1" d="M41.6,29.3c0,0,1.9-1.3,2.1-1.8s0.2-1.4,0.2-1.4s-0.6-1.4,0.6-1.3c1.2,0.1,0.3,1.7,0.3,1.7s1.1-0.5,1.2-0.7
				c0.1-0.3,1.2-0.2,0.9,0.7c-0.3,0.9-1.5,1-1.5,1s2.4-0.2,2.5,0.4c0.1,0.6-0.9,1.2-1.7,1.2c-0.7-0.1-2.2,1.2-2.4,2.2
				c0,0,2.5,0.1,2.2,1.1s-1.8-0.1-2.2,0.4c-0.4,0.5-2.7,1.7-3.2,0S41.6,29.3,41.6,29.3z"/>
			<g>
				<defs>
					<path id="SVGID_3_" d="M31.4,32.4c0,0,0.8-2,1.1-4.1c0.4-2.1,3-5.5,3.5-5.2c0.5,0.2,0.5,0.6,0.5,0.6s2.1-1,2.6-0.4s0,1,0,1
						s2.8,0.7,2.8,4.3c0,0,1.1-0.7,1.2-0.3c0.1,0.4-1.1,1.8-1.1,1.8s1.2,0.6-0.2,1.2c0,0-1.2,2.7-1.5,1.1c0,0-2.1-3.6-3.1-3.3
						c-1,0.3-3,5-4.5,6.8C31.3,37.7,30.4,35.7,31.4,32.4z"/>
				</defs>
				<use xlink:href="#SVGID_3_"  style="overflow:visible;fill:#725219;"/>
				<clipPath id="SVGID_4_">
					<use xlink:href="#SVGID_3_"  style="overflow:visible;"/>
				</clipPath>
				<path class="st3" d="M31.4,30.8c0,0,0.5,2.6,1.1,2.9c0.7,0.2,3.4-5.9,4.5-6.6c1.1-0.7,1.2-1.5,1.2-1.5s1.2,4,1.9,3.9
					s0.9-0.3,0.9-0.3s-0.7,1,0.2,1.6c0.9,0.6,1.1-0.5,1.1-0.5s0.9,0.8-0.5,2.3c-1.4,1.5-5.3,1.1-5.3,1.1s-2,2.2-2.7,2.8
					c-0.7,0.6-3.7,6.4-5,4.1S27,28.5,31.4,30.8z"/>
			</g>
		</g>
		<path class="st4" d="M23.9,37.6c0,0-3.3,1-3,3.7c0.3,2.7,0.7,4.2-2.1,4.4c-3.2,0.3-6.9,0-7.6-3.2c-0.9-4-5.3-4.2-6.9-2
			c-1.6,2.2-0.2,2.7,0.6,2.5c0.9-0.2,0.7-0.6,0.7-0.6s0.7,0.4,0.7-0.2c0-0.6,0.6-1.4,1.6-0.7s1.1,2.9,3.3,4.8c2.2,1.9,7.4,1.8,9.4,1
			s3-2.1,2.6-4.5c-0.3-1.8-0.3-3.8,2.3-3.8C28.7,38.9,25.4,36.8,23.9,37.6z"/>
		<g>
			<g>
				<defs>
					<path id="SVGID_5_" d="M13.6,20.8c0,0-0.1,6.6,2.9,11.2s7.5,7.2,10.4,6.7s5.6-5.4,4.7-6.9c-0.9-1.5-4.3-2.2-5.2-2.5
						S24,27.8,23.9,27c-0.1-0.8-1-3.1-1.3-4.3c-0.3-1.2,1.5-1.9,1.3-1.9C23.6,20.8,14.7,18.4,13.6,20.8z"/>
				</defs>
				<use xlink:href="#SVGID_5_"  style="overflow:visible;fill:#725219;"/>
				<clipPath id="SVGID_6_">
					<use xlink:href="#SVGID_5_"  style="overflow:visible;"/>
				</clipPath>
				<path class="st5" d="M14,24.7c0,0,1.1,0,1.6-0.5c0,0-0.6,0.9-0.4,1.5c0.3,0.7,0.4,0.3,0.4,0.3s-0.2,2,1.5,2.7
					c1.7,0.7,3.4,0,3.4,0s12.7,5.1,11.8,8.4s-5,5.4-8.8,2.8c-3.8-2.6-8.2-4.9-8.7-8.9S14,24.7,14,24.7z"/>
			</g>
			<g>
				<defs>
					<path id="SVGID_7_" d="M20.6,25.3c0,0-4.2-1.3-4.5,1c-0.4,2.2,1.8,3.7,4.3,3.1c0,0-1.9,6.6,5.1,7.6s6.7-2,6.6-3.7
						c-0.2-1.7-0.5-4.3-7.6-5.1c0,0,0.5-1.6-0.6-3.1C22.7,23.5,21.3,24,20.6,25.3z"/>
				</defs>
				<use xlink:href="#SVGID_7_"  style="overflow:visible;fill:#F7D0BF;"/>
				<clipPath id="SVGID_8_">
					<use xlink:href="#SVGID_7_"  style="overflow:visible;"/>
				</clipPath>
				<path class="st6" d="M16.1,26.2c0,0,1.1,3.8,5.4,2.5c0,0-1,4.5,3.7,5.9c4.7,1.4,6.5,0.1,7-0.9c0,0,1.5,3.1-3.5,4.2
					c-5,1.1-9.5-1.6-9.3-5.8C19.3,32.1,14.7,28.9,16.1,26.2z"/>
			</g>
			<path class="st7" d="M27.9,31.3c0,0,1.1,0.1,0.9,0.5C28.6,32.2,28.1,31.7,27.9,31.3z"/>
			<circle class="st7" cx="18.4" cy="27.1" r="0.3"/>
			<circle class="st7" cx="23.5" cy="25.4" r="0.3"/>
		</g>
		<g>
			<path class="st1" d="M13.2,37.3c0,0,0.5-1.7-0.3-2.5c0,0,0.4-1.1,1.1-0.6c0.7,0.5,0.9,1.5,0.9,2c0,0.5,0.9,0.8,1.2,0.6
				s2.5-1.1,2.7-0.4c0.2,0.7-1.4,1.3-1.6,1.5s1.4,0.3,2.1,1.1c0.7,0.7,0.2,1-0.3,1.1c-0.5,0.1-1.4-0.3-1.9,0
				c-0.5,0.3,1.4,0.7,0.9,1.4c-0.5,0.7-2-1.2-3-1.1C13.9,40.5,12.7,39.2,13.2,37.3z"/>
			<g>
				<defs>
					<path id="SVGID_9_" d="M12.6,20.1c0,0-2.9-0.1-2.8,0.6c0.1,0.7,0.5,0.4,0.5,0.4S7.9,21.8,7.7,23c0,0-4.7,4.9-3.4,9.4
						c0,0-0.5,1-0.2,1.4s0.5,0,0.5,0s0.4,2.8,1.1,2.7C6.4,36.5,6.1,36,6.1,36s3.5,4.4,8.3,4.5c0,0,1.6,0,1.1-1.1
						c0,0,0.8-0.5,0.5-1.1c-0.3-0.5-1.4-0.7-1.4-0.7S14,36,13.3,36.2c-0.6,0.2-0.4,0.6-0.4,0.6s-0.7-0.3-1.7-0.5
						c-0.9-0.2-3.3-1.4-3.1-4.4c0.4-4.8,3.2-6.7,5.8-7.2c2.7-0.5,2.2-1.4,1.8-2.6C15.3,20.9,14.6,20,12.6,20.1z"/>
				</defs>
				<use xlink:href="#SVGID_9_"  style="overflow:visible;fill:#725219;"/>
				<clipPath id="SVGID_10_">
					<use xlink:href="#SVGID_9_"  style="overflow:visible;"/>
				</clipPath>
				<path class="st8" d="M10.8,19.7c0,0,1.1,0.9,1.6,0.9c0,0-4.4,2.1-3.7,2.7c0,0-3.3,3.7-2.8,7.9s1.7,3.8,1.7,3.8s3.1,2.9,5.5,2.2
					c0,0,0.6,1.7,2.4,1.3c0,0,1-0.2,1-0.7c0-0.5-0.5,3.6-2.7,3.4c-2.1-0.2-4.4,0.2-7.3-2.5s-5.1-4.4-5.4-5.7c-0.3-1.2-0.6-6-0.6-6.1
					S7.6,16.7,10.8,19.7z"/>
			</g>
		</g>
		<g>
			<path class="st1" d="M36.2,44.3c0,0,1-0.8,1.2-0.5c0.2,0.2,0.4,1.1,0.4,1.1s0.7,0.1,1.3-0.3c0.6-0.3,1.2-0.5,1.5,0.1
				c0.3,0.6,0.8,2.2,0,2.3c-0.8,0.2-1.3-1.2-1.6-1.3c-0.3-0.1-0.6-0.1-0.6-0.1s0.5,1.9-0.8,2s-0.4-1.6-1-1.6l-0.3,0
				c0,0,0.1,1.8-0.8,1.7c-0.9-0.1-0.8-1.4-1.2-1.5c0,0-3.1,0.2-3.7-0.2c-0.6-0.3-0.1-1.7,0.5-2C31.6,43.6,34.5,43.5,36.2,44.3z"/>
			<g>
				<defs>
					<path id="SVGID_11_" d="M27.4,37.6c2.7-0.3,8-4.3,11-0.5c3,3.8-0.9,5.7-2.2,6.6c0,0,1.4,0.5,0.7,1c-0.7,0.5-2.7-0.6-2.7-0.6
						s-0.5,0.9-1.6,0.7c-1-0.2-0.6-0.8-0.6-0.8s-0.9,0.6-1.4-0.1s1-0.6,1.4-0.9c0.4-0.2,2-1.4,1.9-2.1c-0.2-0.7-0.5-0.8-0.5-0.8
						s-0.7,0.4-1.1-0.4c0,0-1.7,1.4-3,0c0,0-4.1,0.2-5.7-1.8C22.6,36.7,23,38,27.4,37.6z"/>
				</defs>
				<use xlink:href="#SVGID_11_"  style="overflow:visible;fill:#725219;"/>
				<clipPath id="SVGID_12_">
					<use xlink:href="#SVGID_11_"  style="overflow:visible;"/>
				</clipPath>
				<path class="st9" d="M23,36.8c0.1-0.2,4.7,2.6,6.6,2.2c0,0,1.5,1.2,3-0.2c0,0,1.8,1.1,2.6,0.7c0,0,2.7,3.6,4.3,1l0.7,0.8
					c0,0-2.4,2-2.5,2.3c-0.1,0.3,0.5,3-2.9,2c-3.4-1-5.8-0.1-6.6-1C27.3,43.8,22.2,38.5,23,36.8z"/>
			</g>
		</g>
		<path class="st4" d="M18.8,23.5c0,0-5,0.7-7.5-3.4c0,0,0-0.1,1.3-0.1S17.3,21.9,18.8,23.5z"/>
		<g>
			<g>
				<g>
					<defs>
						<path id="SVGID_13_" d="M22.8,14.7c0,0,1.6-1.9,3.1-1.6c1.6,0.3,5.2,5.6-1.2,6.4C24.7,19.4,21.9,18.7,22.8,14.7z"/>
					</defs>
					<use xlink:href="#SVGID_13_"  style="overflow:visible;fill:#F7D0BF;"/>
					<clipPath id="SVGID_14_">
						<use xlink:href="#SVGID_13_"  style="overflow:visible;"/>
					</clipPath>
					<path class="st10" d="M23.3,16.9c0,0,1.2-1.5,2.2-1.3c1,0.2,1.7,0.5,1.3,2.7c0,0,1,0.4,1.5-0.5c0,0-2,3.3-3.8,2
						C22.7,18.4,22.3,18,23.3,16.9z"/>
				</g>
				<path class="st7" d="M23.5,16.7c0,0,1.2-1.7,2.2-1.4c1,0.3,1.1,1.5,1.1,1.5S26.4,14.7,23.5,16.7z"/>
			</g>
			<g>
				<g>
					<defs>
						<path id="SVGID_15_" d="M13.3,14.6c0,0-2-3.3-4.8-0.9s1.3,6.6,4.8,5C13.3,18.7,14.8,17.6,13.3,14.6z"/>
					</defs>
					<use xlink:href="#SVGID_15_"  style="overflow:visible;fill:#F7D0BF;"/>
					<clipPath id="SVGID_16_">
						<use xlink:href="#SVGID_15_"  style="overflow:visible;"/>
					</clipPath>
					<path class="st11" d="M8.1,14.2c0,0-0.7,2.5,1.3,3.3c0,0,1-3,2.8-1.6s1.8,1.4,1.4,2.7c-0.4,1.3-3.2,1.5-4.6,0.1
						C7.5,17.4,6.8,15.8,8.1,14.2z"/>
				</g>
				<path class="st7" d="M12.6,16.2c0,0-1.6-2.4-3.7-0.6C8.9,15.6,10.9,14.8,12.6,16.2z"/>
			</g>
			<path class="st12" d="M18.1,10c0,0-1.4-1.1-2-0.6c-0.6,0.4,0,0.9,0,0.9s-1.2-0.2-2.5,0.5c-1.3,0.7,0,1.2,0,1.2s-1.9,2.4-1.6,3.8
				s0.8,0.6,0.8,0.6s-0.2,1,0.5,1.4c0.6,0.5,10.1,1.7,10.2,1.1c0.1-0.6,0.7-2.9,0.3-3.4c0,0,0.6-0.5-0.3-1.4c0,0,1.4-0.2,0.3-1.8
				c-1.2-1.6-3.3-1.8-3.3-1.8s1-0.6,0.5-1.1C20.5,9.1,18.9,9.2,18.1,10z"/>
			<g>
				<defs>
					<path id="SVGID_17_" d="M14.9,16.4c0,0-1.3-2.6,0-3.8s3.1,0.2,3.1,0.2s1.6-1.3,2.9-0.7c1.3,0.6,2,2.4,1.3,4.6
						c0,0,4,1.7,2.7,4.5s-5.1,2.8-7.9,2C14.3,22.4,9.2,19.3,14.9,16.4z"/>
				</defs>
				<use xlink:href="#SVGID_17_"  style="overflow:visible;fill:#F7D0BF;"/>
				<clipPath id="SVGID_18_">
					<use xlink:href="#SVGID_17_"  style="overflow:visible;"/>
				</clipPath>
				<path class="st13" d="M14.9,16.4c0,0-1.8,1.3-1.3,3.3c0.6,2,4.6,4.3,9.2,3.5c0,0-1.6,1.4-3.3,1.5C17.9,24.7,5.6,19.2,14.9,16.4z
					"/>
			</g>
			<g>
				<path class="st2" d="M18.1,16.6c0,0-1-0.9-1.8-0.3c-0.8,0.6,0,1.3,0,1.3S15.8,15.8,18.1,16.6z"/>
				<path class="st2" d="M19,16.8c0,0,0.9-1.2,1.9-0.6c1,0.6,0.3,1.5,0.3,1.5S21.3,15.4,19,16.8z"/>
				<ellipse class="st14" cx="16.9" cy="14.8" rx="0.4" ry="0.5"/>
				<ellipse class="st14" cx="19.7" cy="14.8" rx="0.4" ry="0.5"/>
				<g>
					<path class="st15" d="M14.9,19.2c0.2,1,0.8,2.6,2.8,2.8c0.2,0,0.4,0,0.6,0C17.9,20.3,16.1,19.5,14.9,19.2z"/>
					<path class="st16" d="M22,19.4c-0.7-0.2-7.2-1.1-7.2-1.1s0,0.4,0.1,0.9c1.2,0.3,3,1,3.5,2.8C21,22,22,19.4,22,19.4z"/>
				</g>
				<path class="st17" d="M19.1,17.7c-0.1-0.3,0.6-1.1,1.2-0.6C20.8,17.7,19.2,18.1,19.1,17.7z"/>
				<path class="st17" d="M18.1,17.5c0-0.4-0.9-1.3-1.2-0.5C16.7,17.7,18,18,18.1,17.5z"/>
			</g>
		</g>
	</g>
</g>
</svg>
