<?xml version="1.0" encoding="utf-8"?>
<!-- Generator: Adobe Illustrator 21.0.0, SVG Export Plug-In . SVG Version: 6.00 Build 0)  -->
<svg version="1.1" id="Calque_1" xmlns="http://www.w3.org/2000/svg" xmlns:xlink="http://www.w3.org/1999/xlink" x="0px" y="0px"
	 viewBox="0 0 50 50" style="enable-background:new 0 0 50 50;" xml:space="preserve">
<style type="text/css">
	.st0{fill:#465D7D;}
	.st1{opacity:0.9;fill:#B4F4E0;}
	.st2{opacity:0.4;fill:#37315E;}
	.st3{fill:#E2444F;}
</style>
<g id="book_1_">
	<path class="st0" d="M30.9,22c0,1.2,2.6,2.1,2.6,2.1h-29C3.1,24.2,2,23.3,2,22v-1.8C2,19,3.1,18,4.5,18h29c0,0-2.6,1-2.6,2.2V22z"
		/>
	<path class="st1" d="M31.7,19.1H5.1c-1.1,0-2.1,0.9-2.1,2c0,1.1,0.9,2,2.1,2h26.5c-0.4-0.4-0.8-0.7-0.8-1.1v-1.8
		C30.9,19.8,31.3,19.4,31.7,19.1z"/>
	<path class="st2" d="M4,22c0-1.1,0.9-2,2.1-2H31c0.1-0.3,0.4-0.6,0.7-0.9H5.1c-1.1,0-2.1,0.9-2.1,2c0,0.8,0.5,1.5,1.1,1.8
		C4.1,22.7,4,22.4,4,22z"/>
</g>
<g id="book">
	<path class="st3" d="M46.2,28.5c0,1.2,2.6,2.2,2.6,2.2H4.5c-1.4,0-2.5-1-2.5-2.2v-1.8c0-1.2,1.1-2.2,2.5-2.2h44.2
		c0,0-2.6,1-2.6,2.2V28.5z"/>
	<path class="st1" d="M46.9,25.6H5.1c-1.1,0-2.1,0.9-2.1,2c0,1.1,0.9,2,2.1,2h41.7c-0.4-0.4-0.6-0.8-0.6-1.2v-1.8
		C46.2,26.2,46.5,25.9,46.9,25.6z"/>
	<path class="st2" d="M4,28.5c0-1.1,0.9-2,2.1-2h40.1c0.1-0.3,0.4-0.6,0.7-0.9H5.1c-1.1,0-2.1,0.9-2.1,2c0,0.8,0.5,1.5,1.1,1.8
		C4.1,29.1,4,28.8,4,28.5z"/>
</g>
</svg>
