<?xml version="1.0" encoding="utf-8"?>
<!-- Generator: Adobe Illustrator 21.0.0, SVG Export Plug-In . SVG Version: 6.00 Build 0)  -->
<svg version="1.1" id="Calque_1" xmlns="http://www.w3.org/2000/svg" xmlns:xlink="http://www.w3.org/1999/xlink" x="0px" y="0px"
	 viewBox="0 0 50 50" style="enable-background:new 0 0 50 50;" xml:space="preserve">
<style type="text/css">
	.st0{fill:#E75342;}
	.st1{opacity:0.4;}
	.st2{fill:#37315E;}
	.st3{fill:#0BCDFF;}
	.st4{fill:#DA7E6E;}
	.st5{opacity:0.2;fill:#37315E;}
	.st6{opacity:0.9;fill:#B4F4E0;}
	.st7{fill:#26384E;}
</style>
<g id="calculator">
	<path class="st0" d="M47,41.2c0,2.4-1.5,4.4-3.4,4.4h-37c-2,0-3.6-2-3.6-4.4V8.4C3,6,4.6,4,6.6,4h37c2,0,3.4,2,3.4,4.4V41.2z"/>
	<g id="shade_13_" class="st1">
		<g>
			<path class="st2" d="M14.1,24c0,0.6-0.4,1.1-0.9,1.1h-3.1c-0.5,0-0.9-0.5-0.9-1.1v-2.7c0-0.6,0.4-1.1,0.9-1.1h3.1
				c0.5,0,0.9,0.5,0.9,1.1V24z"/>
			<path class="st2" d="M14.1,29.9c0,0.6-0.4,1.1-0.9,1.1h-3.1c-0.5,0-0.9-0.6-0.9-1.1v-2.7c0-0.6,0.4-1.1,0.9-1.1h3.1
				c0.5,0,0.9,0.5,0.9,1.1V29.9z"/>
			<path class="st2" d="M14.1,36.2c0,0.6-0.4,1.1-0.9,1.1h-3.1c-0.5,0-0.9-0.5-0.9-1.1v-2.7c0-0.6,0.4-1.1,0.9-1.1h3.1
				c0.5,0,0.9,0.5,0.9,1.1V36.2z"/>
			<path class="st2" d="M14.1,42.1c0,0.6-0.4,1.1-0.9,1.1h-3.1c-0.5,0-0.9-0.5-0.9-1.1v-2.7c0-0.6,0.4-1.1,0.9-1.1h3.1
				c0.5,0,0.9,0.5,0.9,1.1V42.1z"/>
			<path class="st2" d="M20.7,24c0,0.6-0.4,1.1-0.9,1.1h-3.1c-0.5,0-0.9-0.5-0.9-1.1v-2.7c0-0.6,0.4-1.1,0.9-1.1h3.1
				c0.5,0,0.9,0.5,0.9,1.1V24z"/>
			<path class="st2" d="M20.7,29.9c0,0.6-0.4,1.1-0.9,1.1h-3.1c-0.5,0-0.9-0.6-0.9-1.1v-2.7c0-0.6,0.4-1.1,0.9-1.1h3.1
				c0.5,0,0.9,0.5,0.9,1.1V29.9z"/>
			<path class="st2" d="M20.7,36.2c0,0.6-0.4,1.1-0.9,1.1h-3.1c-0.5,0-0.9-0.5-0.9-1.1v-2.7c0-0.6,0.4-1.1,0.9-1.1h3.1
				c0.5,0,0.9,0.5,0.9,1.1V36.2z"/>
			<path class="st2" d="M20.7,42.1c0,0.6-0.4,1.1-0.9,1.1h-3.1c-0.5,0-0.9-0.5-0.9-1.1v-2.7c0-0.6,0.4-1.1,0.9-1.1h3.1
				c0.5,0,0.9,0.5,0.9,1.1V42.1z"/>
			<path class="st2" d="M27.3,24c0,0.6-0.4,1.1-0.9,1.1h-3.1c-0.5,0-0.9-0.5-0.9-1.1v-2.7c0-0.6,0.4-1.1,0.9-1.1h3.1
				c0.5,0,0.9,0.5,0.9,1.1V24z"/>
			<path class="st2" d="M27.3,29.9c0,0.6-0.4,1.1-0.9,1.1h-3.1c-0.5,0-0.9-0.6-0.9-1.1v-2.7c0-0.6,0.4-1.1,0.9-1.1h3.1
				c0.5,0,0.9,0.5,0.9,1.1V29.9z"/>
			<path class="st2" d="M27.3,36.2c0,0.6-0.4,1.1-0.9,1.1h-3.1c-0.5,0-0.9-0.5-0.9-1.1v-2.7c0-0.6,0.4-1.1,0.9-1.1h3.1
				c0.5,0,0.9,0.5,0.9,1.1V36.2z"/>
			<path class="st2" d="M27.3,42.1c0,0.6-0.4,1.1-0.9,1.1h-3.1c-0.5,0-0.9-0.5-0.9-1.1v-2.7c0-0.6,0.4-1.1,0.9-1.1h3.1
				c0.5,0,0.9,0.5,0.9,1.1V42.1z"/>
			<path class="st2" d="M35.6,24c0,0.6-0.4,1.1-0.9,1.1h-3.1c-0.5,0-0.9-0.5-0.9-1.1v-2.7c0-0.6,0.4-1.1,0.9-1.1h3.1
				c0.5,0,0.9,0.5,0.9,1.1V24z"/>
			<path class="st2" d="M35.6,29.9c0,0.6-0.4,1.1-0.9,1.1h-3.1c-0.5,0-0.9-0.6-0.9-1.1v-2.7c0-0.6,0.4-1.1,0.9-1.1h3.1
				c0.5,0,0.9,0.5,0.9,1.1V29.9z"/>
			<path class="st2" d="M35.6,36.2c0,0.6-0.4,1.1-0.9,1.1h-3.1c-0.5,0-0.9-0.5-0.9-1.1v-2.7c0-0.6,0.4-1.1,0.9-1.1h3.1
				c0.5,0,0.9,0.5,0.9,1.1V36.2z"/>
			<path class="st2" d="M35.6,42.1c0,0.6-0.4,1.1-0.9,1.1h-3.1c-0.5,0-0.9-0.5-0.9-1.1v-2.7c0-0.6,0.4-1.1,0.9-1.1h3.1
				c0.5,0,0.9,0.5,0.9,1.1V42.1z"/>
			<path class="st2" d="M42.5,24c0,0.6-0.4,1.1-0.9,1.1h-3.1c-0.5,0-0.9-0.5-0.9-1.1v-2.7c0-0.6,0.4-1.1,0.9-1.1h3.1
				c0.5,0,0.9,0.5,0.9,1.1V24z"/>
			<path class="st2" d="M42.5,29.9c0,0.6-0.4,1.1-0.9,1.1h-3.1c-0.5,0-0.9-0.6-0.9-1.1v-2.7c0-0.6,0.4-1.1,0.9-1.1h3.1
				c0.5,0,0.9,0.5,0.9,1.1V29.9z"/>
			<path class="st2" d="M42.5,36.2c0,0.6-0.4,1.1-0.9,1.1h-3.1c-0.5,0-0.9-0.5-0.9-1.1v-2.7c0-0.6,0.4-1.1,0.9-1.1h3.1
				c0.5,0,0.9,0.5,0.9,1.1V36.2z"/>
			<path class="st2" d="M42.5,42.1c0,0.6-0.4,1.1-0.9,1.1h-3.1c-0.5,0-0.9-0.5-0.9-1.1v-2.7c0-0.6,0.4-1.1,0.9-1.1h3.1
				c0.5,0,0.9,0.5,0.9,1.1V42.1z"/>
		</g>
	</g>
	<g>
		<path class="st3" d="M13.4,23c0,0.6-0.4,1.1-0.9,1.1H9.4c-0.5,0-0.9-0.5-0.9-1.1v-2.7c0-0.6,0.4-1.1,0.9-1.1h3.1
			c0.5,0,0.9,0.5,0.9,1.1V23z"/>
		<path class="st3" d="M13.4,28.9c0,0.6-0.4,1.1-0.9,1.1H9.4c-0.5,0-0.9-0.6-0.9-1.1v-2.7c0-0.6,0.4-1.1,0.9-1.1h3.1
			c0.5,0,0.9,0.5,0.9,1.1V28.9z"/>
		<path class="st3" d="M13.4,35.2c0,0.6-0.4,1.1-0.9,1.1H9.4c-0.5,0-0.9-0.5-0.9-1.1v-2.7c0-0.6,0.4-1.1,0.9-1.1h3.1
			c0.5,0,0.9,0.5,0.9,1.1V35.2z"/>
		<path class="st3" d="M13.4,41c0,0.6-0.4,1.1-0.9,1.1H9.4c-0.5,0-0.9-0.5-0.9-1.1v-2.7c0-0.6,0.4-1.1,0.9-1.1h3.1
			c0.5,0,0.9,0.5,0.9,1.1V41z"/>
		<path class="st3" d="M20,23c0,0.6-0.4,1.1-0.9,1.1H16c-0.5,0-0.9-0.5-0.9-1.1v-2.7c0-0.6,0.4-1.1,0.9-1.1h3.1
			c0.5,0,0.9,0.5,0.9,1.1V23z"/>
		<path class="st3" d="M20,28.9c0,0.6-0.4,1.1-0.9,1.1H16c-0.5,0-0.9-0.6-0.9-1.1v-2.7c0-0.6,0.4-1.1,0.9-1.1h3.1
			c0.5,0,0.9,0.5,0.9,1.1V28.9z"/>
		<path class="st3" d="M20,35.2c0,0.6-0.4,1.1-0.9,1.1H16c-0.5,0-0.9-0.5-0.9-1.1v-2.7c0-0.6,0.4-1.1,0.9-1.1h3.1
			c0.5,0,0.9,0.5,0.9,1.1V35.2z"/>
		<path class="st3" d="M20,41c0,0.6-0.4,1.1-0.9,1.1H16c-0.5,0-0.9-0.5-0.9-1.1v-2.7c0-0.6,0.4-1.1,0.9-1.1h3.1
			c0.5,0,0.9,0.5,0.9,1.1V41z"/>
		<path class="st3" d="M26.6,23c0,0.6-0.4,1.1-0.9,1.1h-3.1c-0.5,0-0.9-0.5-0.9-1.1v-2.7c0-0.6,0.4-1.1,0.9-1.1h3.1
			c0.5,0,0.9,0.5,0.9,1.1V23z"/>
		<path class="st3" d="M26.6,28.9c0,0.6-0.4,1.1-0.9,1.1h-3.1c-0.5,0-0.9-0.6-0.9-1.1v-2.7c0-0.6,0.4-1.1,0.9-1.1h3.1
			c0.5,0,0.9,0.5,0.9,1.1V28.9z"/>
		<path class="st3" d="M26.6,35.2c0,0.6-0.4,1.1-0.9,1.1h-3.1c-0.5,0-0.9-0.5-0.9-1.1v-2.7c0-0.6,0.4-1.1,0.9-1.1h3.1
			c0.5,0,0.9,0.5,0.9,1.1V35.2z"/>
		<path class="st3" d="M26.6,41c0,0.6-0.4,1.1-0.9,1.1h-3.1c-0.5,0-0.9-0.5-0.9-1.1v-2.7c0-0.6,0.4-1.1,0.9-1.1h3.1
			c0.5,0,0.9,0.5,0.9,1.1V41z"/>
		<path class="st3" d="M34.9,23c0,0.6-0.4,1.1-0.9,1.1h-3.1c-0.5,0-0.9-0.5-0.9-1.1v-2.7c0-0.6,0.4-1.1,0.9-1.1H34
			c0.5,0,0.9,0.5,0.9,1.1V23z"/>
		<path class="st3" d="M34.9,28.9c0,0.6-0.4,1.1-0.9,1.1h-3.1c-0.5,0-0.9-0.6-0.9-1.1v-2.7c0-0.6,0.4-1.1,0.9-1.1H34
			c0.5,0,0.9,0.5,0.9,1.1V28.9z"/>
		<path class="st3" d="M34.9,35.2c0,0.6-0.4,1.1-0.9,1.1h-3.1c-0.5,0-0.9-0.5-0.9-1.1v-2.7c0-0.6,0.4-1.1,0.9-1.1H34
			c0.5,0,0.9,0.5,0.9,1.1V35.2z"/>
		<path class="st4" d="M34.9,41c0,0.6-0.4,1.1-0.9,1.1h-3.1c-0.5,0-0.9-0.5-0.9-1.1v-2.7c0-0.6,0.4-1.1,0.9-1.1H34
			c0.5,0,0.9,0.5,0.9,1.1V41z"/>
		<path class="st3" d="M41.8,23c0,0.6-0.4,1.1-0.9,1.1h-3.1c-0.5,0-0.9-0.5-0.9-1.1v-2.7c0-0.6,0.4-1.1,0.9-1.1h3.1
			c0.5,0,0.9,0.5,0.9,1.1V23z"/>
		<path class="st3" d="M41.8,28.9c0,0.6-0.4,1.1-0.9,1.1h-3.1c-0.5,0-0.9-0.6-0.9-1.1v-2.7c0-0.6,0.4-1.1,0.9-1.1h3.1
			c0.5,0,0.9,0.5,0.9,1.1V28.9z"/>
		<path class="st3" d="M41.8,35.2c0,0.6-0.4,1.1-0.9,1.1h-3.1c-0.5,0-0.9-0.5-0.9-1.1v-2.7c0-0.6,0.4-1.1,0.9-1.1h3.1
			c0.5,0,0.9,0.5,0.9,1.1V35.2z"/>
		<path class="st3" d="M41.8,41c0,0.6-0.4,1.1-0.9,1.1h-3.1c-0.5,0-0.9-0.5-0.9-1.1v-2.7c0-0.6,0.4-1.1,0.9-1.1h3.1
			c0.5,0,0.9,0.5,0.9,1.1V41z"/>
	</g>
	<path class="st5" d="M43.6,4h-37C4.6,4,3,6,3,8.4v8.9h44V8.4C47,6,45.5,4,43.6,4z"/>
	<rect x="8.2" y="5.7" class="st6" width="34.3" height="10.4"/>
	<polygon class="st5" points="9.2,6.8 42.5,6.8 42.5,5.7 8.2,5.7 8.2,16.1 9.2,16.1 	"/>
	<g>
		<polygon class="st7" points="36.3,7.4 35.9,7 35.6,7.4 35.6,14.9 35.9,15.3 36.3,14.9 		"/>
		<polygon class="st7" points="34.5,7.4 34.2,7 33.8,7.4 33.8,14.9 34.2,15.3 34.5,14.9 		"/>
		<polygon class="st7" points="29.7,7.4 29.3,7 29,7.4 29,14.9 29.3,15.3 29.7,14.9 		"/>
		<polygon class="st7" points="39.9,7.1 40.3,6.8 39.9,6.4 36.5,6.4 36.1,6.8 36.5,7.1 		"/>
		<polygon class="st7" points="40.4,7 40.1,7.4 40.1,14.9 40.4,15.3 40.8,14.9 40.8,7.4 		"/>
		<polygon class="st7" points="36.5,15.1 36.1,15.4 36.5,15.8 39.9,15.8 40.3,15.4 39.9,15.1 		"/>
	</g>
</g>
</svg>
