<?xml version="1.0" encoding="utf-8"?>
<!-- Generator: Adobe Illustrator 21.0.0, SVG Export Plug-In . SVG Version: 6.00 Build 0)  -->
<svg version="1.1" id="Calque_1" xmlns="http://www.w3.org/2000/svg" xmlns:xlink="http://www.w3.org/1999/xlink" x="0px" y="0px"
	 viewBox="0 0 50 50" style="enable-background:new 0 0 50 50;" xml:space="preserve">
<style type="text/css">
	.st0{clip-path:url(#SVGID_2_);fill:#442603;}
	.st1{clip-path:url(#SVGID_4_);fill:#442603;}
	.st2{fill:#3D2503;}
	.st3{clip-path:url(#SVGID_6_);fill:#724809;}
	.st4{clip-path:url(#SVGID_8_);fill:#724809;}
	.st5{fill:#3D2501;}
	.st6{fill:#301C02;}
	.st7{fill:#020200;}
	.st8{fill:#A27736;}
	.st9{clip-path:url(#SVGID_10_);fill:#4C2B02;}
	.st10{clip-path:url(#SVGID_12_);fill:#4C2B02;}
	.st11{clip-path:url(#SVGID_14_);fill:#3D2503;}
	.st12{fill:#4F3203;}
	.st13{fill:#724809;}
</style>
<g>
	<g>
		<g>
			<defs>
				<path id="SVGID_1_" d="M18.2,26.4c0,0,1.3,4.5,1.8,5.9c0.5,1.4,0.5,2.3,0.5,2.3s-2.8-0.5-2.5,2.2c0,0,3.8,0,4.3-0.3
					c0.5-0.3,1.1-0.2,1.2-0.9c0.2-0.7-0.1-5.1,0.3-6.4C24.2,27.9,19.2,24.2,18.2,26.4z"/>
			</defs>
			<use xlink:href="#SVGID_1_"  style="overflow:visible;fill:#5B3704;"/>
			<clipPath id="SVGID_2_">
				<use xlink:href="#SVGID_1_"  style="overflow:visible;"/>
			</clipPath>
			<path class="st0" d="M18.6,37c0,0-0.2-1.2,0.3-1.3c0,0-0.4,0.9,0,1.3H18.6z"/>
			<path class="st0" d="M19.6,37c0,0-0.2-1.1,0.5-1.3c0,0-0.1,0.8,0,1.3H19.6z"/>
		</g>
		<g>
			<defs>
				<path id="SVGID_3_" d="M33,29.4c0,0,0.6,1.4,1.2,1.8C34.7,31.7,35,34,35,34s-2.4,0.2-1.9,1.6c0.1,0.3,2.7,0.3,3.9,0
					c1.2-0.3,1.7-1.5,1.7-1.5s0.3-4.1,0-5.8C38.3,26.6,32.5,22.3,33,29.4z"/>
			</defs>
			<use xlink:href="#SVGID_3_"  style="overflow:visible;fill:#5B3704;"/>
			<clipPath id="SVGID_4_">
				<use xlink:href="#SVGID_3_"  style="overflow:visible;"/>
			</clipPath>
			<path class="st1" d="M33.5,35.8c0,0,0-1,0.6-1.1c0,0-0.3,0.7-0.2,1.4L33.5,35.8z"/>
			<path class="st1" d="M34.7,36c0,0,0-1.2,0.6-1.2c0,0-0.2,0.4,0,1.4L34.7,36z"/>
		</g>
	</g>
	<path class="st2" d="M13.3,23.3c0,0-0.9,2.4-0.5,3.3c0.5,0.9,4.1,1.4,5.7,0.7c1.6-0.8,0.5-8.3,0-10.5s-2.2-2.4-3.1-2.5
		C14.5,14.2,13.5,20.9,13.3,23.3z"/>
	<g>
		<defs>
			<path id="SVGID_5_" d="M18.2,10.9c-2.7,0-4.3,2.3-4.5,3.4c0,0-7.4,1.9-9.1,2.2s-2.3,1-2.8,3.5s-1,3.9-0.5,4.1s3-0.7,3-0.7
				s1.7,2.9,2.8,2.9s4.5-2.3,4.5-2.3s4.1,1.4,5.4,1.7c0,0,2.1,4.2,4.4,5.1s7.1,2.3,11.3,1.6s8.2-2.5,10-3.4c1.8-0.8,2.7-2.7,2.6-5.1
				c-0.1-2.4,0.1-4.6-1.9-4.6S30.1,20.7,24,18.6C24,18.6,23.3,10.9,18.2,10.9z"/>
		</defs>
		<use xlink:href="#SVGID_5_"  style="overflow:visible;fill:#9A640D;"/>
		<clipPath id="SVGID_6_">
			<use xlink:href="#SVGID_5_"  style="overflow:visible;"/>
		</clipPath>
		<path class="st3" d="M12.7,23.3c0,0,2.7,0.6,4,0.6c0,0,1-0.1,1.8-0.6c0,0,3.2,4.7,5,5.8c1.8,1.1,7,1.3,8.5,0.6
			c1.5-0.7,5.1-2.9,7.3-3.5c2.2-0.6,5.3-4,5.5-5.3c0,0,1.1,3.6,0.7,5.3c-0.4,1.7-3,4.6-9.3,5.8c-6.4,1.2-14.1,1.5-16-0.3
			c-1.9-1.8-3.6-5.6-3.6-5.6s-5.1-1.4-5.3-2.1C12.4,23.3,12.7,23.3,12.7,23.3z"/>
	</g>
	<g>
		<defs>
			<path id="SVGID_7_" d="M42,19.4c0,0,2.4-0.5,3.2-1.9s0.9-3.6,0.1-4.3c0,0,2.6,1,2.1,4c-0.5,3-3,4-3,4S40.9,21.4,42,19.4z"/>
		</defs>
		<use xlink:href="#SVGID_7_"  style="overflow:visible;fill:#9A640D;"/>
		<clipPath id="SVGID_8_">
			<use xlink:href="#SVGID_7_"  style="overflow:visible;"/>
		</clipPath>
		<path class="st4" d="M45.3,13.2c0,0,4,3.7-0.4,7.7c0,0,0.2,1.2,1.5,0.3c1.3-1,2.6-4.3,2.2-5.8C48.2,14,46.9,12.2,45.3,13.2z"/>
	</g>
	<path class="st5" d="M11.5,24c0,0,1.3-1.2,1.8-1.3c0.5-0.1,2.9,0.2,3.5,0s1.4-1.5,1.4-1.5s-0.6,1.9-1.3,2.1c-0.6,0.2-2.9,0-3.7-0.1
		C12.5,23.2,11.5,24,11.5,24z"/>
	<g>
		<path class="st6" d="M5.6,16.9c1.9,0.4,4.1,1.2,4.1,1.9c0,0.6-2.8,2.8-4.6,2.4c-1.7-0.4-2.8-3.8-2.6-4.3
			C2.7,16.5,4.8,16.8,5.6,16.9z"/>
		<path class="st7" d="M6.1,21.2c0,0-0.2-1.8,0.5-1.9c0.7-0.1,1.1,0,1.1,0S6.3,19.4,6.1,21.2z"/>
		<path class="st7" d="M4,20.5c0,0,0.9-1.8-0.5-2C3.6,18.5,4.1,19.1,4,20.5z"/>
		<path class="st8" d="M6.1,17.4c0,0-2.7-0.5-3.3-0.3S7,18.6,6.1,17.4z"/>
	</g>
	<g>
		<g>
			<defs>
				<path id="SVGID_9_" d="M23.5,27.7c-0.2,0.5,1.2,4.5,1.6,5.4c0.3,0.9,0,3.2,0,3.2s-1.9-0.6-1.9,2.1c0,0,3.5,0.6,5.2,0
					c0,0,0.7-0.8,1-1.6c0.3-0.8,0.5-3.5,1.1-4.7c0.6-1.2,0.7-2.2,0-4.4C29.6,25.6,24.8,23.8,23.5,27.7z"/>
			</defs>
			<use xlink:href="#SVGID_9_"  style="overflow:visible;fill:#9A640D;"/>
			<clipPath id="SVGID_10_">
				<use xlink:href="#SVGID_9_"  style="overflow:visible;"/>
			</clipPath>
			<path class="st9" d="M23.8,38.5c0,0-0.2-1.3,0.7-1.5c0,0-0.3,0.9-0.2,1.7L23.8,38.5z"/>
			<path class="st9" d="M25.1,38.7c0,0-0.1-1.6,0.9-1.7c0,0-0.5,0.9-0.2,2L25.1,38.7z"/>
		</g>
		<g>
			<defs>
				<path id="SVGID_11_" d="M36.8,24c0,0-0.3,4.8,2.8,6.9c0,0,0.9,2.4,1,3.8c0,0-2.4,0.9-1.9,2.1c0.1,0.2,3.5,0.5,4.3,0
					s1.4-1.7,1.4-1.7s1.3-8,0.7-11.6C44.5,19.9,36.8,20.9,36.8,24z"/>
			</defs>
			<use xlink:href="#SVGID_11_"  style="overflow:visible;fill:#9A640D;"/>
			<clipPath id="SVGID_12_">
				<use xlink:href="#SVGID_11_"  style="overflow:visible;"/>
			</clipPath>
			<path class="st10" d="M39.4,37c0,0-0.2-1.2,0.6-1.3c0,0-0.4,0.9-0.3,1.5L39.4,37z"/>
			<path class="st10" d="M40.6,37.2c0,0-0.1-1.5,0.7-1.5c0,0-0.4,0.6-0.3,1.5L40.6,37.2z"/>
		</g>
	</g>
	<g>
		<defs>
			<path id="SVGID_13_" d="M21.3,13.2c-1.1,0-1.3,0.5-1.4,1.9c-0.1,1.4-0.9,9.1-1.3,10.1c-0.4,1,1,3.1,3.3,2.7
				c2.3-0.4,3.9-1.7,4.1-2.7C26.2,24.2,24.4,13,21.3,13.2z"/>
		</defs>
		<use xlink:href="#SVGID_13_"  style="overflow:visible;fill:#5B3902;"/>
		<clipPath id="SVGID_14_">
			<use xlink:href="#SVGID_13_"  style="overflow:visible;"/>
		</clipPath>
		<path class="st11" d="M22.6,13.8c0,0,2.5,4.3,1.9,8.8c-0.6,4.5-4.6,2.8-5.2,2.3s-0.4-3.7-0.4-3.7s-1.6,4.2-0.7,5.7
			c0.9,1.5,4,2.9,6.4,0.8s2.5-2.7,2.3-3.6S24.8,14.3,22.6,13.8z"/>
	</g>
	<path class="st12" d="M29.6,19.7c0,0-3.1,2.1,1.2,3.1c4.3,1,6-0.8,6.4-1.6c0.4-0.8-0.2-1.5-0.2-1.5S30.7,19.8,29.6,19.7z"/>
	<path class="st12" d="M38.7,20.9c-1,0.1-1.8,2.8,0.4,2.2S40.7,20.7,38.7,20.9z"/>
	<g>
		<ellipse class="st7" cx="14.2" cy="15.4" rx="0.3" ry="0.6"/>
		<g>
			<path class="st13" d="M16.8,13.8c-1.7,0-2.4,2.2-0.8,3.4C17.7,18.5,20.5,13.8,16.8,13.8z"/>
			<ellipse class="st7" cx="16.4" cy="15.8" rx="0.3" ry="0.6"/>
		</g>
	</g>
</g>
</svg>
