<?xml version="1.0" encoding="utf-8"?>
<!-- Generator: Adobe Illustrator 21.0.0, SVG Export Plug-In . SVG Version: 6.00 Build 0)  -->
<svg version="1.1" id="Calque_1" xmlns="http://www.w3.org/2000/svg" xmlns:xlink="http://www.w3.org/1999/xlink" x="0px" y="0px"
	 viewBox="0 0 50 50" style="enable-background:new 0 0 50 50;" xml:space="preserve">
<style type="text/css">
	.st0{fill:#FFF4EF;}
	.st1{fill:#D5C5BE;}
	.st2{clip-path:url(#SVGID_2_);fill:#E1D1CB;}
	.st3{clip-path:url(#SVGID_4_);fill:#E1D1CB;}
	.st4{clip-path:url(#SVGID_6_);fill:#E1D1CB;}
	.st5{fill:#E1D1CB;}
	.st6{clip-path:url(#SVGID_8_);fill:#E1D1CB;}
	.st7{fill:#FFEFE8;}
	.st8{fill:#DCBFB2;}
	.st9{fill:#110F0E;}
</style>
<g>
	<g>
		<path class="st0" d="M19.7,36.6c0,0-3.3,2.8-2.3,5.9s2.3,4,2.3,4s-3,0.7-4.1,0.3c-1.1-0.4-2.2,0.8-1.7,2.3c0,0,6.8,0.7,10.7-0.5
			c0,0,2.6,0.1,1.8-4.2C25.5,40.1,24,35.1,19.7,36.6z"/>
		<path class="st1" d="M14.2,49.2c0,0-0.1-1.1,0.2-1.3c0,0,0.1,1.2,0.2,1.3L14.2,49.2z"/>
		<path class="st1" d="M15.2,49.3c0,0-0.3-1,0-1.4c0,0,0.2,1.1,0.4,1.4L15.2,49.3z"/>
	</g>
	<g>
		<defs>
			<path id="SVGID_1_" d="M31.1,26.9c0,0,0.2,8.2,3.2,13.2s0.7,8,0.7,8s-9.7,0.2-10.8,0.5s-4.5-2.4-5-8.5s0.2-7-0.4-9.8
				S28.5,21.3,31.1,26.9z"/>
		</defs>
		<use xlink:href="#SVGID_1_"  style="overflow:visible;fill:#FFF4EF;"/>
		<clipPath id="SVGID_2_">
			<use xlink:href="#SVGID_1_"  style="overflow:visible;"/>
		</clipPath>
		<path class="st2" d="M23.4,31.2c0,0,3.7,0.7,5.3,0.6c0,0,1.3,5.9,2.5,8.2c1.1,2.2-7.6,9.5-11.3,3.3s1.3,6,2.5,6.8
			c1.3,0.8,10.7,1.9,13-0.2c2.3-2.1,3.5-4.5,1.3-9.3c-2.2-4.8-4.3-14.1-4.3-14.1s-2.7-1-3.8-1.4C27.5,24.5,22.8,29.8,23.4,31.2z"/>
	</g>
	<g>
		<defs>
			<path id="SVGID_3_" d="M33.3,41.1c0,0-0.5-5.1,1.9-5.7s5.7,3,5.6,6.2C40.5,44.8,37.2,49.2,33.3,41.1z"/>
		</defs>
		<use xlink:href="#SVGID_3_"  style="overflow:visible;fill:#FFF4EF;"/>
		<clipPath id="SVGID_4_">
			<use xlink:href="#SVGID_3_"  style="overflow:visible;"/>
		</clipPath>
		<path class="st3" d="M32.6,41.1c0,0,2.8,2.5,4.8,2.1s2.7-3.2,2.7-4.5c-0.1-1.3,1.1-0.1,1.4,1.5c0.2,1.6-0.6,6.7-2.7,6.6
			C36.7,46.8,32.3,44.1,32.6,41.1z"/>
	</g>
	<g>
		<path class="st1" d="M20.1,34.2c0,0-0.1,2.4,0.5,3c0.6,0.6,1.7,0.6,2,0s0-3.2,0-3.2s1,2.9,0.1,3.7s-1.8,0.7-2.4,0
			C19.8,36.9,20.1,34.2,20.1,34.2z"/>
		<path class="st1" d="M24.2,33.9c0,0-0.2,3,0.9,3.2c1.1,0.2,2.1,0.1,1.6-3c0,0,1.2,4.1-1.1,4S24.2,33.9,24.2,33.9z"/>
	</g>
	<g>
		<g>
			<defs>
				<path id="SVGID_5_" d="M29.8,36.6c-2.5,0.8-7.2,5-0.7,10.3c0,0-2.5,0.5-3.7,0c-1.2-0.5-2.1,0.9-1.5,2.7c0,0,6.7,0.9,11.4,0
					c0,0,2-3.7,0.2-7.4C33.5,38.5,32.8,35.6,29.8,36.6z"/>
			</defs>
			<use xlink:href="#SVGID_5_"  style="overflow:visible;fill:#FFF4EF;"/>
			<clipPath id="SVGID_6_">
				<use xlink:href="#SVGID_5_"  style="overflow:visible;"/>
			</clipPath>
			<path class="st4" d="M28.7,50c0,0,2.7-0.6,4-2.1c1.3-1.5,1.8-6.4,1.1-8.7s3,3.5,2.7,7c-0.4,3.5-0.6,3.5-1.7,3.9
				C33.7,50.4,28.7,50,28.7,50z"/>
		</g>
		<path class="st1" d="M27.2,38.4c0,0-1.9,2.5-1,4.5c0.9,2,3.2,4,3.2,4s-2.1,0.4-3.5,0.3c-1.2-0.1-2.2-0.1-2.3,1.5
			c0,0-0.7-1.8,1.3-1.9s3.7,0,3.7,0s-2.4-2-2.8-3.5C25.1,40.5,27.2,38.4,27.2,38.4z"/>
		<path class="st1" d="M24.2,49.6c0,0-0.2-1.1,0.3-1.5l0.2,1.6L24.2,49.6z"/>
		<path class="st1" d="M25,49.7c0,0,0-1.2,0.3-1.4l0.2,1.5C25.5,49.8,25.2,49.7,25,49.7z"/>
	</g>
	<path class="st5" d="M23.2,30.7c0,0,3.6,0.7,2.9-2.9c0,0-0.1,3.4-3.2,2.1C22.9,29.9,22.7,30.1,23.2,30.7z"/>
	<g>
		<g>
			<defs>
				<path id="SVGID_7_" d="M23.7,13.1c0,0,2.3-0.5,3.5,0c0,0-1.7-8.5,2.7-12.3c0,0,4.4,6.8,0.9,14.7c0,0,1.5,9.1,0.6,12.3
					c-1,3.2-4.4,3.6-8.3,3.4c-3.9-0.2-6.2-1.4-6.6-3.8c-0.4-2.5,3.3-11.9,4.5-13.6c0,0-3.4-9-0.1-12.7C20.8,1.1,25.7,4.7,23.7,13.1z
					"/>
			</defs>
			<use xlink:href="#SVGID_7_"  style="overflow:visible;fill:#FFF4EF;"/>
			<clipPath id="SVGID_8_">
				<use xlink:href="#SVGID_7_"  style="overflow:visible;"/>
			</clipPath>
			<path class="st6" d="M27,31c0,0,3.9-2,3.4-7.8c-0.5-5.8-0.5-7.6-0.5-7.6s4-5.8,0-14.9c0,0,5.4,7.4,1.5,15.1
				C31.3,15.9,36.2,31.2,27,31z"/>
		</g>
		<path class="st1" d="M27.4,13.6c0,0,1.6,0.7,2,1.5c0,0,3-6.2,0-12.5C29.4,2.6,26.8,5.2,27.4,13.6z"/>
		<path class="st1" d="M23,13.4c0,0,0.6-6.1-2.1-11.4c0,0-2.7,3.5,0.4,11.9C21.4,13.8,22.2,13.2,23,13.4z"/>
		<g>
			<g>
				<path class="st1" d="M20.5,29.4L20.1,32h3.2l-0.2-2.3c0,0-1,0-1.5-1.6C21.6,28.1,21.3,29.3,20.5,29.4z"/>
				<path class="st7" d="M20.6,29.4l-0.3,2.4h2.8v-2.1c0,0-1,0-1.5-1.6C21.6,28.1,21.5,29.2,20.6,29.4z"/>
				<path class="st8" d="M21.6,29.1c0-0.1-0.1,1.3,0,2.3C21.6,31.4,21.9,30.5,21.6,29.1z"/>
			</g>
			<g>
				<ellipse class="st9" cx="20.7" cy="22.8" rx="0.5" ry="0.9"/>
				<ellipse class="st9" cx="25.6" cy="22.8" rx="0.5" ry="0.9"/>
				<path class="st9" d="M20.1,26c0,0,2.7,0,3,0.3c0,0-1,1.4-1.5,1.5S20.1,26,20.1,26z"/>
				<path class="st9" d="M18.1,27.5c0,0,0.4,1.9,1.8,1.9s1.8-1.9,1.8-1.9s0.5,2.3,2.6,2.2c2.1-0.1,1.8-2.2,1.8-2.2s0.6,3-1.8,2.8
					s-2.6-1.7-2.6-1.7s-0.4,1.2-1.8,1.1S18.1,27.5,18.1,27.5z"/>
			</g>
		</g>
	</g>
</g>
</svg>
