<?xml version="1.0" encoding="utf-8"?>
<!-- Generator: Adobe Illustrator 21.0.0, SVG Export Plug-In . SVG Version: 6.00 Build 0)  -->
<svg version="1.1" id="Calque_1" xmlns="http://www.w3.org/2000/svg" xmlns:xlink="http://www.w3.org/1999/xlink" x="0px" y="0px"
	 viewBox="0 0 50 50" style="enable-background:new 0 0 50 50;" xml:space="preserve">
<style type="text/css">
	.st0{clip-path:url(#SVGID_2_);fill:#7F4D04;}
	.st1{clip-path:url(#SVGID_4_);fill:#D7AD00;}
	.st2{fill:#C3A00E;}
	.st3{fill:#665C31;}
	.st4{clip-path:url(#SVGID_6_);fill:#D7AD00;}
	.st5{fill:#EEC000;}
	.st6{fill:#B9980F;}
	.st7{fill:#D7AD00;}
	.st8{clip-path:url(#SVGID_8_);fill:#7F4D04;}
	.st9{clip-path:url(#SVGID_10_);fill:#D7AD00;}
	.st10{clip-path:url(#SVGID_12_);fill:#D7AD00;}
	.st11{fill:#FFFFFF;}
	.st12{fill:#FFE371;}
	.st13{fill:#473A04;}
	.st14{fill:#F1D353;}
	.st15{fill:#2D2504;}
	.st16{fill:#7F4D04;}
	.st17{clip-path:url(#SVGID_14_);fill:#D7AD00;}
</style>
<g>
	<g>
		<g>
			<defs>
				<path id="SVGID_1_" d="M38.6,11.4c0,0-1.1-1.5,0-4.3c1.1-2.8,2.6-3.3,2.2,0c0,0,1.7-2.5,3.9-1.6c2.2,0.9,3.2,2.9,0.7,3
					c0,0,2.1,1.8,1.5,3.6c-0.6,1.8-2,2.6-2.2,0.4c0,0-0.1,2-2.1,1.3C40.6,13.1,38.9,12.1,38.6,11.4z"/>
			</defs>
			<use xlink:href="#SVGID_1_"  style="overflow:visible;fill:#9D6100;"/>
			<clipPath id="SVGID_2_">
				<use xlink:href="#SVGID_1_"  style="overflow:visible;"/>
			</clipPath>
			<path class="st0" d="M41.4,9.1c0,0,0.8,0.4,0.8,1.2s0,2.5,0.9,2.6c1,0.1,1.6-1.4,1.6-1.4s0.5,1.5,0.9,0.8c0.4-0.7,0.7-2.5,0-3.5
				s1.9,1.1,2.1,1.9c0.3,0.8-2.5,4.1-3.8,4c-1.3-0.1-2.8,0.3-3.9-0.7s-2.2-0.8-2-1.5C38.4,12,40.3,9,41.4,9.1z"/>
		</g>
		<g>
			<defs>
				<path id="SVGID_3_" d="M43.6,28.9c0,0-1-2.5-2.2-3.7c-1.2-1.2-9.2-9.7-2.4-15.1c0,0,1.7-1.9,2.5-1c0.8,1-0.5,1.1-0.5,1.1
					s1.5,1.5,0.5,1.5c-1,0-2.3,1.2-2.3,4.3s5.6,9.8,6.6,12.8c1,3-0.2,7.2-2.4,8.3c-2.2,1.1-0.7-1.1-0.1-2
					C43.9,34.3,44.1,31.1,43.6,28.9z"/>
			</defs>
			<use xlink:href="#SVGID_3_"  style="overflow:visible;fill:#EEC000;"/>
			<clipPath id="SVGID_4_">
				<use xlink:href="#SVGID_3_"  style="overflow:visible;"/>
			</clipPath>
			<path class="st1" d="M40.5,8.9c0,0,1.3,0.3,0,1.3c0,0,0.1,0.5-0.7,1c-0.8,0.5-2,1.8-1.6,4.4s1.9,5.3,4.1,8.6c2,3,1.3,4.7,0.2,6.7
				c-0.4,0.7-0.2,5-0.7,5.9s2.2,2.2,2.2,2s1-0.9,2.1-3.6c1.1-2.7,1.9-5.1-0.5-8.1s-4.6-6.7-5.3-9.5s0.3-4.2,0.8-4.8
				c0.5-0.5,2-1.9,0.7-2.3C41.8,10.5,42.6,8,40.5,8.9z"/>
		</g>
	</g>
	<g>
		<path class="st2" d="M8.6,39.1c0-2.6,3-1.9,3.7-1.6s3.8-0.3,3.8-0.3c-0.1-0.8-1.4-7.5-1.4-7.5c4.1-0.2,7.1,6.9,7.5,7.2
			c0.5,0.4-0.5,1.8-0.8,2.5c-0.3,0.7-2.2,0.4-4.3,0.5c-1.3,0.1-4,0.3-5.8,0.5C11.4,40.5,8.6,40.2,8.6,39.1z"/>
		<path class="st3" d="M9,38.6c0,0-0.6,0-0.5,1l0.4-0.1C8.9,39.4,8.9,38.8,9,38.6z"/>
		<path class="st3" d="M9.6,38.7c0,0-0.8,0.4-0.6,1.3c0,0,0.3,0,0.4,0C9.5,40,9.4,39,9.6,38.7z"/>
		<path class="st3" d="M10.2,39c0,0-0.6,0.5-0.4,1.3c0,0,0.3-0.1,0.4-0.1C10.2,40.2,10,39.4,10.2,39z"/>
	</g>
	<g>
		<defs>
			<path id="SVGID_5_" d="M15.8,32.7c0,0,0.1,4.9,6.5,6.4s15.5,0.6,17.5,0c2-0.6,6.4-5.1,4.5-9.1s-6.6-4.3-13.4-3.5
				C24.1,27.4,12.2,25.6,15.8,32.7z"/>
		</defs>
		<use xlink:href="#SVGID_5_"  style="overflow:visible;fill:#EEC000;"/>
		<clipPath id="SVGID_6_">
			<use xlink:href="#SVGID_5_"  style="overflow:visible;"/>
		</clipPath>
		<path class="st4" d="M16.2,33.2c0,0,6.4-4.5,8.4,3.8c3.2,0.3,6.3,0.1,7.4-0.3s6-2,7.7-2.5c1.7-0.5,4.8-1.4,4.9-3.2
			c0.4-4.9,2.2,3.5-1.4,6.9c-3.6,3.5-17.8,3.9-18.6,3.7C23.8,41.4,15.3,37.6,16.2,33.2z"/>
	</g>
	<g>
		<path class="st5" d="M23.4,30.9c0,0-0.8,2.7,0,4.3c0.8,1.6,1.3,2.8,1.3,2.8s-4.2,1-4.8,0.8c-0.6-0.2-4.6-0.6-4.6,3
			c0,0,2.8,2.2,6.4,0c0,0,7-0.3,8.3-1.7c1.3-1.4-1.5-5.7-1.6-7.3C28.3,31.2,25.8,27.4,23.4,30.9z"/>
		<path class="st3" d="M16.1,40.6c0,0-1.1,0.2-0.7,1.4h0.5C15.8,42,15.7,41.1,16.1,40.6z"/>
		<path class="st3" d="M16.7,40.8c0,0-0.9,1-0.7,1.7l0.5-0.1C16.6,42.4,16.6,41,16.7,40.8z"/>
		<path class="st3" d="M17.8,41c0,0-0.7,0.8-0.3,1.9l0.5-0.2C17.9,42.7,17.6,41.4,17.8,41z"/>
		<path class="st6" d="M30.2,39.7c0,0,0.4-0.9,0.1-2c-0.3-1.1-1.6-3.3-1.9-4.4c0,0,0.7,2.3,1.1,3.2S30.3,39,30.2,39.7z"/>
		<path class="st6" d="M21.2,38.6c0,0,3.2-0.7,3.5-0.9c0,0-1.2-2.1-1.4-3c0,0,1.3,2.8,1.9,3.2C25.1,37.9,22.4,38.6,21.2,38.6z"/>
	</g>
	<g>
		<path class="st5" d="M43.3,29c0,0-8.1-2.8-9.8,0s2,7.9,4.9,8.8c0,0-3.7,1.1-4.7,1.1c0,0-4.3-2.1-3.4,2.9c0,0,3.5,0.9,5.6,0
			c0,0,6.8-1.8,8.5-1.8S46.3,32.5,43.3,29z"/>
		<path class="st3" d="M30.5,40.4c0,0-0.8,0.4-0.5,1.4l0.7-0.1C30.7,41.7,30.3,40.7,30.5,40.4z"/>
		<path class="st3" d="M31.4,40.3c0,0-1,0.8-0.7,2l0.7-0.3C31.4,42,31.1,40.9,31.4,40.3z"/>
		<path class="st3" d="M32.4,40.6c0,0-0.8,1-0.5,1.9l0.5-0.4C32.4,42.1,32.1,41.1,32.4,40.6z"/>
		<path class="st6" d="M33.5,32.7c0,0,1.5,2.8,3.3,3.8c1.8,1,3.4,0.8,3.4,0.8s-2.8,1-3.7,1.2c-0.9,0.2-2.4,0.3-2.4,0.3
			s2.6-0.7,4.4-1.1C38.4,37.7,35.8,37.5,33.5,32.7z"/>
	</g>
	<path class="st7" d="M22.8,35.2c0,0,2.7,0.4,3-3.1c0,0,5.8,4.2,6-4.1c0,0,1.5-0.5,0.8-2.3C31.8,24,28.5,27,28.5,27
		S21.2,29.5,22.8,35.2z"/>
	<g>
		<g>
			<defs>
				<path id="SVGID_7_" d="M18.6,7.7c0,0,4.1-1.9,7.2-0.3s1,2.3,1,2.3s5.6,2.4,6,5.2c0.4,2.9-1.4,1.7-1.4,1.7s1.5,2.7,1.8,7
					s-2.3,3.4-2.3,3.4s1,3.3-1.2,5s-4.6-1.3-4.6-1.3s0.1,4.1-1.8,4.4c-1.9,0.3-2.2-1.6-2.2-1.6s-1.3,3.8-4.6,3.1
					c-2.6-0.6-2.5-3-2.5-3s-1.5,2.4-3.1,2c-1.6-0.4-2.3-3.4-2.3-3.4s-0.4,1.5-1.7,1.1c-1.4-0.4-2.1-3.7-1.6-5.6c0,0-1,1.1-1.7,0.6
					s-1.2-6,0.9-8.4c0,0-1.9,0.1-2.2-1.7s2.4-6.6,5.5-7.8c0,0-1.2-0.1-1.3-0.7C6.3,9,9.5,2.7,18.6,7.7z"/>
			</defs>
			<use xlink:href="#SVGID_7_"  style="overflow:visible;fill:#9D6100;"/>
			<clipPath id="SVGID_8_">
				<use xlink:href="#SVGID_7_"  style="overflow:visible;"/>
			</clipPath>
			<path class="st8" d="M4.4,19.9c0,0-1.2,6-0.4,6.3s2.3,0,2.3,0s-0.3,5.1,1,5.3c1.3,0.1,2.6-1.7,2.6-1.7s0.2,3.7,2.1,3.8
				c1.9,0.1,3.1-2.7,3.1-2.7s1.2,3.2,3.5,2.3c2.8-1.1,2.5-2.6,2.5-2.6s1.5,1.2,2.7-0.3c1.2-1.5,0.9-3.1,0.9-3.1s1.5,1.3,3,0.3
				s1.5-5.4,1.5-5.4s2.7,0.1,2.6-1.7c-0.1-1.8-0.9-4.2-0.9-4.2s1.5,1.3,1.8-0.2s0,3.3,0,3.3s2.5,6.7-0.4,9.2c0,0,0.1,4.1-3.5,4.8
				c-3.6,0.7-3.1-0.5-3.1-0.5s-2.2,5.4-4.3,2.5c0,0-5.9,5.5-7.7,0.6c0,0-4.4,3.3-5.3-1.5c0,0-4.3,0.1-4-4.5
				C4.5,29.7-0.3,25.4,4.4,19.9z"/>
		</g>
		<g>
			<defs>
				<path id="SVGID_9_" d="M10.7,16.5c0,0,0.7-1.8,1.9-1.4c0,0,0.2-2.1,1.3-1.8c0,0-1.2-2.9-3.5-1.1S8,15.3,10.7,16.5z"/>
			</defs>
			<use xlink:href="#SVGID_9_"  style="overflow:visible;fill:#EEC000;"/>
			<clipPath id="SVGID_10_">
				<use xlink:href="#SVGID_9_"  style="overflow:visible;"/>
			</clipPath>
			<path class="st9" d="M13.8,13.6c0,0-0.8-1.4-1.7-1.4c-0.9,0-2.9,1.7-2.5,2.4s2.1,1.5,2.1,1.5S13.5,14.1,13.8,13.6z"/>
		</g>
		<g>
			<defs>
				<path id="SVGID_11_" d="M17.3,14.7c0,0,2.4,3.4,3.2,2.8c0.6-0.4,0.7-1.6,0.7-1.6s0.7,3.5,1.5,3.3c0.5-0.1,0.6-0.8,0.6-0.8
					s-0.5,4.5-0.8,6.2c-0.4,1.9-2.3,4.2-4,4.5c-1,0.2-4,0.6-5.5-2.2c-1-1.9-0.8-8.2-0.7-8.1s1.1,1.3,2-0.5c0.8-1.8,0.8-2.7,0.8-2.7
					S15.6,19,17.3,14.7z"/>
			</defs>
			<use xlink:href="#SVGID_11_"  style="overflow:visible;fill:#EEC000;"/>
			<clipPath id="SVGID_12_">
				<use xlink:href="#SVGID_11_"  style="overflow:visible;"/>
			</clipPath>
			<path class="st10" d="M12,19.6c0,0,0.8,0.9,1.3,0.7c0.5-0.2,1.8-3.2,1.8-3.2s0.3,0.8,0.9,0.6c0.7-0.2,1.3-2.1,1.3-2.1
				s2.1,3.3,3,3.4c0.9,0.1,0.8-1.1,0.8-1.1s0.6,2.3,1.2,2.2c0,0-0.1,6.8-3.7,8.9c0,0,2,0.2,2.8-0.4c0.9-0.6,2.7-8.8,2.6-10.1
				s-1.3-4.3-2-5s-7-0.3-7-0.3S10.9,16.7,12,19.6z"/>
		</g>
		<path class="st7" d="M19.5,22.9c-2.5-0.3-7.9,0.5-6.2,2.9c0,0.1,0.1,0.1,0.1,0.1c-0.1,0.1-0.4,0.4-0.3,0.6c0,0,0.4,0.1,0.7-0.2
			l0,0c1.3,1.6,1.8,0.5,1.8,0.5s0.5,0.7,1,0.9c0.3,0.1,1-0.2,1.7-0.5l0,0.1c0,0,0.2,0,0.4-0.2c0.1-0.1,0.1-0.1,0.1-0.2
			c0.4-0.2,0.7-0.4,0.7-0.4c0.1-0.1,1.1-0.3,1.1-1.6S19.5,22.9,19.5,22.9z"/>
		<g>
			<ellipse cx="18.7" cy="20.3" rx="0.3" ry="0.6"/>
			<ellipse cx="15.5" cy="20.1" rx="0.3" ry="0.6"/>
			<path class="st11" d="M12.8,25.2c0,0,0.1,1.2,0.3,1.4c0.1,0.1,0.7-0.8,0.7-0.8L12.8,25.2z"/>
			<path class="st11" d="M17.4,26.1c0,0,0.6,1.2,0.8,1.2s0.4-1.6,0.4-1.6L17.4,26.1z"/>
			<path class="st12" d="M12.1,24.4C12,23.9,12.4,21.9,13,22c0.5,0.1,2.8,0.8,3.8,0.8c1,0,2.8-0.3,3,0.6s0.2,2-0.3,2.2
				c-0.5,0.2-3.3,2.1-4,0.8c0,0-0.3,0.6-0.8,0.4C14.2,26.6,12.3,25.3,12.1,24.4z"/>
			<path class="st13" d="M15.5,24.5c0,0,0.1,2-0.6,2s-2.3-1.4-2.3-1.4s0.7,0.7,1.3,1.2s1.2,1.1,1.6,0.1c0,0,0.4,0.8,1.1,0.6
				c0.7-0.2,2.3-1.1,2.3-1.1s-2.1,0.8-2.5,0.8c-0.5-0.1-0.5-0.2-0.5-0.5s0.2-1.6,0.2-1.7C16.1,24.3,15.5,24.5,15.5,24.5z"/>
			<path class="st14" d="M13.9,22.2c0,0,0.4-0.2,0.9-0.5c0.7-0.2,2.1-0.3,3.2,0.3c0.2,0.4,0,0.6,0.2,0.7
				C18.7,23.1,14.9,23.1,13.9,22.2z"/>
			<path class="st15" d="M14.8,21.7c0,0-0.7,0.3-0.7,0.5s1.1,0.3,1.1,0.3s2.4,0.3,2.6,0.2c0.3-0.1,0.3-0.4,0.2-0.7
				c0,0,0.4,0.3,0.4,0.7c0,0.2-1.7,2-2.6,2c-0.9,0-2.1-2.3-2-2.5C13.8,21.9,14.8,21.7,14.8,21.7z"/>
		</g>
		<path class="st16" d="M26.3,19.2c0,0,2.8,1.3,3.6,0s0.2-3.5-0.7-4.1S26.7,14,26.7,14S28.1,19,26.3,19.2z"/>
		<g>
			<defs>
				<path id="SVGID_13_" d="M24.1,15.4c0,0,0.8,0.1,0.8,1.2c0,0,1.8,1,1.4,2.7c0,0,4.7-0.9,2.3-3.9S24.1,15.4,24.1,15.4z"/>
			</defs>
			<use xlink:href="#SVGID_13_"  style="overflow:visible;fill:#EEC000;"/>
			<clipPath id="SVGID_14_">
				<use xlink:href="#SVGID_13_"  style="overflow:visible;"/>
			</clipPath>
			<path class="st17" d="M24.6,15.7c0,0,1.4-1.2,2.1-1s1.9,1.4,1.6,2.7s-2.5,1.2-2.5,1.2L24.6,15.7z"/>
		</g>
	</g>
</g>
</svg>
