<?xml version="1.0" encoding="utf-8"?>
<!-- Generator: Adobe Illustrator 21.0.0, SVG Export Plug-In . SVG Version: 6.00 Build 0)  -->
<svg version="1.1" id="Calque_1" xmlns="http://www.w3.org/2000/svg" xmlns:xlink="http://www.w3.org/1999/xlink" x="0px" y="0px"
	 viewBox="0 0 50 50" style="enable-background:new 0 0 50 50;" xml:space="preserve">
<style type="text/css">
	.st0{fill:#FFFFFF;}
	.st1{fill:#FF9136;}
</style>
<g>
	
		<image style="overflow:visible;opacity:0.4;" width="47" height="54" xlink:href="90493AEC50EE0587.png"  transform="matrix(1 0 0 1 5 -1)">
	</image>
	<g>
		<g>
			<g>
				<path class="st0" d="M41.7,24.4c-3.4-1.2-6.6,2.9-8,5.1c0.2,0.4,0.4,0.8,0.6,1.4c0.2,0.6,0.4,1.3,0.5,2c0.9-1.5,2.4-3.8,3.6-4.9
					c1.7-1.7,2.6-0.8,4.1-0.1C43.9,28.6,46.2,26.1,41.7,24.4z"/>
				<path class="st0" d="M11.3,14.8c0,0.8,0.6,1.5,1.4,1.5c0.2-0.9,0.5-1.8,0.9-2.7c-0.2-0.2-0.6-0.3-0.9-0.3
					C11.9,13.3,11.3,14,11.3,14.8z"/>
				<path class="st0" d="M38.5,14.8c0-0.8-0.7-1.5-1.5-1.5c-0.3,0-0.7,0.1-0.9,0.3c0.4,0.8,0.7,1.7,0.9,2.7
					C37.9,16.3,38.5,15.6,38.5,14.8z"/>
				<path class="st0" d="M18.2,43.2c-0.1-0.2-0.1-0.5-0.1-0.7v-1.9c0-1.2,0.1-2.2,0.4-3c-0.6-1.1-1-2.3-1-3.7c0-1.5,0.4-2.9,1.2-4
					c-0.7-0.4-1.4-0.9-2-1.4c-0.4,0.6-0.9,1.4-1.2,2.5c-1,2.9-1.1,6.9-0.3,11.8c0.2,1,1,1.7,2,1.7c0.1,0,0.2,0,0.3,0
					c0.2,0,0.3-0.1,0.5-0.2v-0.6C18.1,43.5,18.1,43.3,18.2,43.2z"/>
				<path class="st0" d="M33.7,29.6c-0.2-0.4-0.4-0.8-0.7-1.1c-0.6,0.5-1.3,1-2,1.4c0.8,1.2,1.2,2.5,1.2,4c0,1.3-0.3,2.5-0.9,3.6
					c0.2,0.8,0.4,1.9,0.4,3v1.9c0,0.2,0,0.5-0.1,0.7c0.1,0.1,0.1,0.3,0.1,0.4v0.6c0.3,0.1,0.3,0.1,0.5,0.2c0.1,0,0.2,0,0.3,0
					c1,0,1.8-0.7,2-1.7c0.6-3.8,0.7-7.1,0.2-9.8c-0.1-0.7-0.3-1.4-0.5-2C34.1,30.4,33.9,30,33.7,29.6z"/>
				<path class="st0" d="M22.3,42.7h-0.1c-0.2,0-0.5,0.1-0.6,0.2c-0.2-0.1-0.4-0.2-0.6-0.2h-0.1c-0.3,0-0.6,0.1-0.8,0.3
					c-0.2-0.2-0.4-0.3-0.7-0.3h-0.1c-0.4,0-0.8,0.2-1,0.5c-0.1,0.1-0.1,0.3-0.1,0.4v0.6v0.6c0,0.6,0.5,1.1,1.1,1.1h0.1
					c0.3,0,0.5-0.2,0.7-0.4c0.2,0.2,0.5,0.4,0.8,0.4h0.1c0.2,0,0.4-0.1,0.6-0.3c0.2,0.2,0.4,0.3,0.6,0.3h0.1c0.6,0,1-0.6,1-1.1v-1.2
					c0,0,0,0,0,0C23.2,43,22.8,42.7,22.3,42.7z"/>
				<path class="st0" d="M27.3,42.7h0.1c0.3,0,0.5,0.1,0.7,0.3c0.2-0.2,0.5-0.3,0.8-0.3h0.1c0.3,0,0.5,0.1,0.7,0.3
					c0.2-0.2,0.5-0.3,0.8-0.3h0.1c0.4,0,0.7,0.2,0.9,0.5c0.1-0.2,0.1-0.5,0.1-0.7v-1.9c0-1.2-0.1-2.2-0.4-3c0.6-1.1,0.9-2.3,0.9-3.6
					c0-1.5-0.4-2.9-1.2-4c0.7-0.4,1.4-0.9,2-1.4c2.6-2.3,4.3-5.7,4.3-9.4c0-0.6,0-1.2-0.1-1.8c1.4-0.1,2.4-1.2,2.4-2.6
					c0-1.4-1.2-2.6-2.6-2.6c-0.6,0-1.1,0.2-1.5,0.5c-2.1-3.4-5.8-5.8-10.1-6c0.2-0.2,0.5-0.4,0.7-0.6c0.2-0.1,0-0.4-0.2-0.3
					c-0.5,0.2-0.8,0.5-1,0.9c0,0,0,0,0,0c0,0-0.1,0-0.1,0c0-0.1,0-0.3,0-0.4c0-0.3,0.1-0.5,0.1-0.8c0-0.1,0.2-0.7,0.2-1
					c0-0.3-0.2-0.4-0.2-0.4c-0.1,0-0.2,0-0.3,0.1c-0.3,0.7-0.4,1.6-0.4,2.5c-4.2,0.2-7.9,2.5-9.9,5.9c-0.4-0.3-0.9-0.4-1.4-0.4
					c-1.4,0-2.6,1.2-2.6,2.6c0,1.3,1,2.4,2.3,2.6c-0.1,0.6-0.1,1.2-0.1,1.8c0,3.8,1.7,7.1,4.3,9.4c0.6,0.5,1.3,1,2,1.4
					c-0.8,1.2-1.2,2.5-1.2,4c0,1.3,0.4,2.6,1,3.7c-0.2,0.8-0.4,1.8-0.4,3v1.9c0,0.3,0,0.5,0.1,0.7c0.2-0.3,0.5-0.5,1-0.5h0.1
					c0.3,0,0.5,0.1,0.7,0.3c0.2-0.2,0.5-0.3,0.8-0.3h0.1c0.2,0,0.4,0.1,0.6,0.2c0.2-0.1,0.4-0.2,0.6-0.2h0.1c0.5,0,0.9,0.3,1,0.8
					c0.2-0.3,0.3-0.7,0.3-1.1v-1.3c0.5,0.1,0.9,0.1,1.3,0.1c0.5,0,0.8,0,1.4-0.1v1.3c0,0.2,0,0.5,0.1,0.7
					C26.6,42.9,26.9,42.7,27.3,42.7z M37,13.3c0.8,0,1.5,0.7,1.5,1.5c0,0.8-0.7,1.5-1.5,1.5c-0.2-0.9-0.5-1.8-0.9-2.7
					C36.4,13.4,36.7,13.3,37,13.3z M12.7,16.3c-0.8,0-1.4-0.7-1.4-1.5c0-0.8,0.7-1.5,1.5-1.5c0.3,0,0.6,0.1,0.9,0.3
					C13.2,14.5,12.9,15.4,12.7,16.3z M18,23.3c0.3-0.9,1-1.6,1.9-2.1c-1.8-0.5-3.1-2.2-3.1-4.1c0-2.4,1.9-4.3,4.3-4.3
					c1.6,0,3,0.9,3.8,2.2c0.7-1.3,2.1-2.2,3.8-2.2c2.4,0,4.3,1.9,4.3,4.3c0,1.9-1.2,3.5-2.9,4.1c1,0.5,1.7,1.2,2,2.2
					c0.6,1.8,1,4.1-2.8,5.1C29,29,28.1,30.2,25,30.2c-3.1,0-4-1.2-4.2-1.8C17.1,27.4,17.4,25.1,18,23.3z M24.9,38.2
					c-2.8,0-5-2.2-5-5c0-0.9,0.2-1.7,0.6-2.4c1.4,0.5,2.8,0.8,4.3,0.8c1.5,0,3-0.3,4.3-0.8c0.4,0.7,0.6,1.6,0.6,2.4
					C29.9,35.9,27.6,38.2,24.9,38.2z"/>
				<path class="st0" d="M31.6,43.2c-0.2-0.3-0.5-0.5-0.9-0.5h-0.1c-0.3,0-0.6,0.1-0.8,0.3c-0.2-0.2-0.4-0.3-0.7-0.3H29
					c-0.3,0-0.6,0.1-0.8,0.3c-0.2-0.2-0.4-0.3-0.7-0.3h-0.1c-0.4,0-0.8,0.2-0.9,0.5c-0.1,0.1-0.1,0.3-0.1,0.4v1.2
					c0,0.6,0.5,1.1,1.1,1.1h0.1c0.3,0,0.5-0.2,0.7-0.4c0.2,0.2,0.5,0.4,0.8,0.4h0.1c0.3,0,0.5-0.2,0.7-0.4c0.2,0.2,0.5,0.4,0.8,0.4
					h0.1c0.6,0,1-0.6,1-1.1v-0.6v-0.6C31.7,43.5,31.7,43.3,31.6,43.2z"/>
				<path class="st1" d="M29.9,33.2c0-0.9-0.2-1.7-0.6-2.4c-1.4,0.5-2.8,0.8-4.3,0.8c-1.5,0-3-0.3-4.3-0.8c-0.4,0.7-0.6,1.6-0.6,2.4
					c0,2.8,2.2,5,5,5C27.6,38.2,29.9,35.9,29.9,33.2z"/>
				<path class="st0" d="M20.8,28.4c0.2,0.6,1.1,1.8,4.2,1.8c3.1,0,3.9-1.2,4.2-1.8c-1,0.3-2.4,0.4-4.2,0.4
					C23.3,28.8,21.9,28.6,20.8,28.4z"/>
				<path class="st1" d="M25,28.8c1.8,0,3.1-0.1,4.2-0.4c3.8-0.9,3.5-3.3,2.8-5.1c-0.3-0.9-1-1.6-2-2.2c1.7-0.6,2.9-2.2,2.9-4.1
					c0-2.4-1.9-4.3-4.3-4.3c-1.6,0-3,0.9-3.8,2.2c-0.7-1.3-2.1-2.2-3.8-2.2c-2.4,0-4.3,1.9-4.3,4.3c0,2,1.3,3.6,3.1,4.1
					c-0.9,0.5-1.6,1.2-1.9,2.1c-0.6,1.8-1,4.1,2.8,5C21.9,28.6,23.3,28.8,25,28.8z M29,14.8c1.2,0,2.1,1,2.1,2.1
					c0,1.2-1,2.1-2.1,2.1c-1.2,0-2.1-1-2.1-2.1C26.8,15.7,27.8,14.8,29,14.8z M25,19.7c1.3,0,2.5,0.2,3,0.7c0,0,0.1,0.1,0.1,0.2
					c0.4,0.7-1.4,0.6-0.9,1c0,0-0.1,0.9-2.3,0.9c-2.1,0-2.3-0.9-2.3-0.9c0.5-0.5-1.2-0.3-0.9-1c0-0.1,0.1-0.1,0.1-0.2
					C22.5,19.9,23.7,19.7,25,19.7z M18.9,16.9c0-1.2,1-2.1,2.1-2.1c1.2,0,2.1,1,2.1,2.1c0,1.2-1,2.1-2.1,2.1
					C19.8,19.1,18.9,18.1,18.9,16.9z"/>
				<path class="st0" d="M22.1,20.4c0,0-0.1,0.1-0.1,0.2c-0.4,0.7,1.4,0.6,0.9,1c0,0,0.1,0.9,2.3,0.9c2.1,0,2.3-0.9,2.3-0.9
					c-0.5-0.5,1.2-0.3,0.9-1c0-0.1-0.1-0.1-0.1-0.2c-0.5-0.6-1.6-0.7-3-0.7C23.7,19.7,22.5,19.9,22.1,20.4z"/>
				<path class="st0" d="M23.1,16.9c0-1.2-1-2.1-2.1-2.1c-1.2,0-2.1,1-2.1,2.1c0,1.2,1,2.1,2.1,2.1C22.2,19.1,23.1,18.1,23.1,16.9z
					 M20.2,17.7c-0.2-0.2-0.4-0.5-0.4-0.8c0-0.6,0.5-1.1,1.1-1.1s1.1,0.5,1.1,1.1c0,0.2-0.1,0.5-0.2,0.6c-0.1-0.3-0.3-0.5-0.7-0.5
					C20.7,17,20.3,17.3,20.2,17.7z"/>
				<path class="st1" d="M21.9,17.5c0.1-0.2,0.2-0.4,0.2-0.6c0-0.6-0.5-1.1-1.1-1.1s-1.1,0.5-1.1,1.1c0,0.3,0.1,0.6,0.4,0.8
					c0.1-0.4,0.4-0.7,0.9-0.7C21.6,17,21.8,17.2,21.9,17.5z"/>
				<path class="st0" d="M29,19.1c1.2,0,2.1-1,2.1-2.1c0-1.2-1-2.1-2.1-2.1c-1.2,0-2.1,1-2.1,2.1C26.8,18.1,27.8,19.1,29,19.1z
					 M29,15.8c0.6,0,1.1,0.5,1.1,1.1c0,0.3-0.1,0.6-0.4,0.8c-0.1-0.4-0.4-0.7-0.9-0.7c-0.4,0-0.7,0.2-0.7,0.5
					c-0.1-0.2-0.2-0.4-0.2-0.6C27.8,16.3,28.3,15.8,29,15.8z"/>
				<path class="st1" d="M28.8,17c0.5,0,0.8,0.3,0.9,0.7c0.2-0.2,0.4-0.5,0.4-0.8c0-0.6-0.5-1.1-1.1-1.1c-0.6,0-1.1,0.5-1.1,1.1
					c0,0.2,0.1,0.5,0.2,0.6C28.1,17.2,28.4,17,28.8,17z"/>
			</g>
		</g>
	</g>
</g>
</svg>
