<?xml version="1.0" encoding="utf-8"?>
<!-- Generator: Adobe Illustrator 21.0.0, SVG Export Plug-In . SVG Version: 6.00 Build 0)  -->
<svg version="1.1" id="Calque_1" xmlns="http://www.w3.org/2000/svg" xmlns:xlink="http://www.w3.org/1999/xlink" x="0px" y="0px"
	 viewBox="0 0 50 50" style="enable-background:new 0 0 50 50;" xml:space="preserve">
<style type="text/css">
	.st0{fill:#FFFFFF;}
	.st1{fill:#FF9136;}
	.st2{fill:#FBFBFB;}
	.st3{fill:#EBEBED;}
</style>
<g>
	
		<image style="overflow:visible;opacity:0.4;" width="47" height="56" xlink:href="41921E91C7B61260.png"  transform="matrix(1 0 0 1 3 -4)">
	</image>
	<g>
		<g>
			<g>
				<path class="st0" d="M41.2,34.7c-2.9-0.6-4,2.3-7.3-1.6c-0.3,0.8-0.8,1.5-1.1,2.1v0.6c1.5,1.6,3.4,3.4,5.5,3.4
					C42.6,39.4,44.1,35.4,41.2,34.7z"/>
				<path class="st1" d="M17.5,6.2c-0.9-0.7-1.9-1.4-2.5-1.4c-0.6,0-1.2,2.6-1,4.3C15,8,16.2,7,17.5,6.2z"/>
				<path class="st1" d="M35.1,9.4c0.3-1.7-0.4-4.6-1-4.6c-0.6,0-1.7,0.7-2.6,1.5C32.9,7.1,34.1,8.2,35.1,9.4z"/>
				<path class="st2" d="M33.9,33.2c0.4-1.1,0.6-2.2,0.6-3.4c0-0.7-0.1-1.3-0.2-2c-2.5,2.6-6,4.2-9.9,4.2c-3.6,0-6.9-1.4-9.4-3.7
					c-0.1,0.5-0.1,1-0.1,1.5c0,2.3,0.9,4.3,2.1,6v7.7c0,0.9,0.7,1.6,1.6,1.6h1.6c0.9,0,1.6-0.7,1.6-1.6V39c0.9,0.3,1.9,0.5,3,0.5
					c1.2,0,2.1-0.2,3.3-0.6v4.5c0,0.9,0.7,1.6,1.6,1.6h1.6c0.9,0,1.6-0.7,1.6-1.6v-7.5v-0.6C33.1,34.6,33.6,33.9,33.9,33.2z"/>
				<path class="st0" d="M34.3,27.7c0.2-0.2,0.4-0.4,0.6-0.6c2.3,0.2,4.3,1.1,5.9,2.8c0.2,0.2,0.4-0.1,0.3-0.2
					c-1.3-1.9-3.7-2.9-6-2.9c0.5-0.6,0.9-1.2,1.3-1.9c1.2,0,2.3,0.1,3.5,0.4c0.2,0,0.2-0.2,0.1-0.3c-1.1-0.4-2.2-0.6-3.3-0.5
					c0.4-0.8,0.8-1.6,1-2.5c1.1-0.2,2.3-0.2,3.5,0c0.3,0,0.3-0.3,0.1-0.4c-1.1-0.4-2.3-0.4-3.5-0.2c0.3-1.1,0.4-2.2,0.4-3.3
					c0-2.3-0.6-4.5-1.6-6.4c1.4-2.9-0.3-11.1-2.6-9.9c-1.4,0.8-3.1,2.3-4.3,3.5c-1.6-0.7-3.4-1.1-5.3-1.1c-1.8,0-3.6,0.4-5.1,1
					c-1.2-1.2-2.8-2.7-4.2-3.5c-2.2-1.2-3.9,6.4-2.7,9.6c-1.1,2-1.7,4.3-1.7,6.7c0,1.1,0.1,2.2,0.4,3.2c-0.9-0.1-1.9-0.1-2.9,0.2
					C7.9,21.7,8,22,8.2,22c1-0.2,2-0.2,2.9,0c0.3,0.9,0.6,1.8,1.1,2.6c-0.9,0-1.8,0.2-2.7,0.5c-0.1,0.1-0.1,0.3,0.1,0.3
					c1-0.2,1.9-0.4,2.9-0.4c0.4,0.7,0.8,1.3,1.3,1.9C11.6,27,9.5,28,8.3,29.7c-0.1,0.2,0.1,0.4,0.3,0.2c1.5-1.6,3.3-2.5,5.4-2.8
					c0.3,0.4,0.7,0.7,1,1c2.5,2.3,5.7,3.7,9.4,3.7C28.3,31.9,31.8,30.3,34.3,27.7z M34.1,4.8c0.6,0,1.3,2.9,1,4.6
					c-1-1.2-2.2-2.3-3.6-3.1C32.4,5.5,33.5,4.7,34.1,4.8z M28.8,14.2c1.3-0.1,2.5,0.9,2.7,2.2c0.1,1.3-0.9,2.5-2.2,2.7
					c-1.3,0.1-2.5-0.9-2.7-2.2C26.5,15.5,27.5,14.3,28.8,14.2z M22.2,16.9c-0.1,1.3-1.3,2.3-2.7,2.2c-1.3-0.1-2.3-1.3-2.2-2.7
					c0.1-1.3,1.3-2.3,2.7-2.2C21.3,14.3,22.3,15.5,22.2,16.9z M15,4.8c0.6,0,1.6,0.7,2.5,1.4C16.2,7,15,8,14,9.1
					C13.8,7.4,14.4,4.8,15,4.8z M21.8,27.9c0-0.1,0-0.3,0-0.5c-0.5,0.2-1.1,0.3-1.6,0.3c-2.4,0-4.3-1.7-4.3-3.7c0-0.2,0-0.3,0-0.5
					c0.1,0,0.2-0.2,0.1-0.3c0,0,0,0,0,0c0.4-1.7,2.2-2.9,4.2-2.9c0.6,0,1.2,0.1,1.8,0.3c0.5-0.4,1.2-0.7,2.4-0.7
					c1.2,0,2,0.3,2.4,0.7c0.5-0.2,1.1-0.3,1.8-0.3c2.4,0,4.3,1.7,4.3,3.7c0,2-1.9,3.7-4.3,3.7c-0.6,0-1.1-0.1-1.6-0.3
					c0,0.2,0,0.3,0,0.5c0,1.4-1.2,2.6-2.6,2.6C23,30.5,21.8,29.4,21.8,27.9z"/>
				<path class="st3" d="M29.3,19.1c1.3-0.1,2.3-1.3,2.2-2.7c-0.1-1.3-1.3-2.3-2.7-2.2c-1.3,0.1-2.3,1.3-2.2,2.7
					C26.7,18.2,27.9,19.2,29.3,19.1z M28.6,15.3c1.6-0.5,2.6,1.5,1.8,2.4c-0.3-0.7-1-1.3-1.9-1c-0.3,0.1-0.6,0.3-0.7,0.5
					C27.5,16.4,27.7,15.5,28.6,15.3z"/>
				<path class="st1" d="M28.5,16.7c0.9-0.3,1.7,0.3,1.9,1c0.8-1-0.2-2.9-1.8-2.4c-1,0.3-1.2,1.2-0.9,1.9
					C27.9,17,28.2,16.8,28.5,16.7z"/>
				<path class="st3" d="M17.3,16.4c-0.1,1.3,0.9,2.5,2.2,2.7c1.3,0.1,2.5-0.9,2.7-2.2c0.1-1.3-0.9-2.5-2.2-2.7
					C18.6,14.1,17.4,15.1,17.3,16.4z M21.1,17.2c-0.1-0.2-0.4-0.4-0.7-0.5c-0.9-0.3-1.7,0.3-1.9,1c-0.8-1,0.2-2.9,1.8-2.4
					C21.2,15.5,21.4,16.4,21.1,17.2z"/>
				<path class="st1" d="M18.4,17.7c0.3-0.7,1-1.3,1.9-1c0.3,0.1,0.6,0.3,0.7,0.5c0.3-0.7,0.1-1.6-0.9-1.9
					C18.6,14.8,17.6,16.7,18.4,17.7z"/>
				<path class="st1" d="M27,27.9c0-0.1,0-0.3,0-0.5c-1.2-0.4-2.2-1.3-2.5-2.5c-0.4,1.1-1.3,2-2.5,2.5c0,0.2,0,0.3,0,0.5
					c0,1.4,1.2,2.6,2.6,2.6C25.8,30.5,27,29.4,27,27.9z"/>
				<path class="st3" d="M24.4,25c0.4,1.1,1.3,2,2.5,2.5c0.5,0.2,1.1,0.3,1.6,0.3c2.4,0,4.3-1.7,4.3-3.7c0-2-1.9-3.7-4.3-3.7
					c-0.6,0-1.2,0.1-1.8,0.3c0.4,0.3,0.5,0.7,0.5,1.2c0,1-1.9,3-2.9,3c-1.1,0-2.9-2-2.9-3c0-0.4,0.2-0.8,0.5-1.2
					c-0.5-0.2-1.1-0.3-1.8-0.3c-2.1,0-3.8,1.3-4.2,2.9c0,0,0,0,0,0c0.1,0.1,0,0.2-0.1,0.3c0,0.2,0,0.3,0,0.5c0,2,1.9,3.7,4.3,3.7
					c0.6,0,1.1-0.1,1.6-0.3C23.1,27.1,24.1,26.1,24.4,25z"/>
				<path class="st1" d="M21.5,21.8c0,1,1.9,3,2.9,3c1.1,0,2.9-2,2.9-3c0-0.4-0.2-0.8-0.5-1.2c-0.5-0.4-1.2-0.7-2.4-0.7
					c-1.2,0-2,0.3-2.4,0.7C21.6,21,21.5,21.4,21.5,21.8z"/>
			</g>
		</g>
	</g>
</g>
</svg>
